<svg width="140" height="32" viewBox="0 0 140 32" fill="none" xmlns="http://www.w3.org/2000/svg">
<g clip-path="url(#clip0_60_9)">
<path d="M106.798 8.84595V8.50035H102.433V8.84595C103.645 9.64085 103.922 9.98645 103.437 11.2306L100.957 17.6772L98.5184 11.2306C98.0681 10.0556 98.2413 9.74453 98.9341 8.84595V8.50035H91.036V8.84595C92.0059 9.5026 92.1098 9.88277 93.0798 12.0255L98.2721 23.4153L91.3824 29.6169V29.9625H97.5484C98.0681 27.6815 98.7609 25.7115 100.458 21.3914C101.497 18.7648 102.502 16.3802 104.996 11.2998C105.793 9.64085 105.862 9.3298 106.798 8.84595Z" fill="white"/>
<path d="M120.273 20.8039C119.58 20.8039 119.234 20.2855 119.234 19.456V12.8895C119.234 9.39891 117.294 8.05105 113.241 8.05105C110.989 8.05105 108.252 9.08786 106.382 10.5048C107.144 11.6108 107.629 12.8895 107.906 14.3411H108.252C109.881 10.4357 110.92 9.50259 111.855 9.50259C113.068 9.50259 113.934 10.885 113.934 12.5439V14.2778L111.128 14.9977C107.664 15.8963 105.966 17.3478 105.966 20.1127C105.966 22.1518 106.901 23.9144 109.569 23.9144C110.643 23.9144 111.405 23.6724 112.444 23.2231L113.934 21.0458H114.091C114.268 22.7711 115.638 23.9144 117.19 23.9144C119.268 23.9144 120.792 22.7047 121.762 20.7348L121.485 20.4583C121 20.7348 120.619 20.8039 120.273 20.8039ZM112.409 20.562C111.543 20.562 110.885 19.8362 110.885 18.4538C110.885 17.0368 111.405 16.2419 112.86 15.7235L113.934 15.3395V20.1849C113.499 20.4251 113.045 20.562 112.409 20.562Z" fill="white"/>
<path d="M138.217 20.6657V12.7513C138.217 7.18396 132.567 6.64619 128.656 10.6376V2.03754H128.309C126.231 3.07435 123.979 3.80013 121.901 4.14573V4.49134C123.217 5.00975 123.044 5.87376 123.044 7.9474V20.6657C123.044 22.0136 122.836 22.6702 121.901 23.1195V23.4651H129.591V23.1195C128.829 22.6702 128.656 22.0136 128.656 20.6657V11.6678C130.418 10.2588 132.917 10.8598 132.917 13.8227V20.6657C132.917 22.0136 132.743 22.6702 131.981 23.1195V23.4651H139.36V23.1195C138.425 22.6702 138.217 22.0136 138.217 20.6657Z" fill="white"/>
<path d="M84.4196 23.1195V23.4651H91.798V23.1195C90.8627 22.6702 90.6549 22.0136 90.6549 20.6657V12.7513C90.6549 7.26551 85.1695 6.66312 81.2672 10.4648V7.98195H80.9208C78.8424 9.01877 76.5907 9.74454 74.5123 10.0902V10.4358C75.8286 10.9542 75.6554 11.8182 75.6554 13.8918V20.6657C75.6554 22.0136 75.4476 22.6702 74.5123 23.1195V23.4651H82.2025V23.1195C81.4404 22.6702 81.2672 22.0136 81.2672 20.6657V11.5375C83.0156 10.3006 85.3549 10.9559 85.3549 13.8227V20.6657C85.3549 22.0136 85.1817 22.6702 84.4196 23.1195Z" fill="white"/>
<path d="M72.7803 20.8039C72.0875 20.8039 71.7411 20.2855 71.7411 19.456V12.8895C71.7411 9.39891 69.8012 8.05105 65.7482 8.05105C63.4965 8.05105 60.7599 9.08786 58.8893 10.5048C59.6514 11.6108 60.1364 12.8895 60.4135 14.3411H60.7599C62.388 10.4357 63.4273 9.50259 64.3626 9.50259C65.575 9.50259 66.441 10.885 66.441 12.5439V14.2778L63.6351 14.9977C60.171 15.8963 58.4736 17.3478 58.4736 20.1127C58.4736 22.1518 59.4089 23.9144 62.0763 23.9144C63.1501 23.9144 63.9122 23.6724 64.9515 23.2231L66.441 21.0458H66.599C66.7756 22.7711 68.1457 23.9144 69.6973 23.9144C71.7757 23.9144 73.2999 22.7047 74.2698 20.7348L73.9927 20.4583C73.5077 20.7348 73.1267 20.8039 72.7803 20.8039ZM64.9168 20.562C64.0508 20.562 63.3926 19.8362 63.3926 18.4538C63.3926 17.0368 63.9122 16.2419 65.3671 15.7235L66.441 15.3395V20.1849C66.0063 20.4251 65.5528 20.562 64.9168 20.562Z" fill="white"/>
<path d="M7.27456 18.5575V9.41107L11.1543 9.39897V8.01655L7.27456 8.03314V3.59279H6.92816C5.2654 6.53044 3.15231 7.94743 0 8.91513V9.43353L2.00917 9.42731V19.1451C2.00917 22.1864 3.87977 23.8107 6.26998 23.8107C7.8981 23.8107 9.83798 22.843 11.4315 20.804L11.189 20.5275C9.52621 21.3915 7.27456 21.2878 7.27456 18.5575Z" fill="white"/>
<path d="M28.3015 20.6657V12.7513C28.3015 7.79879 22.6516 6.66071 18.7406 10.6379V2.03754H18.3942C16.3158 3.07435 14.0641 3.80013 11.9857 4.14573V4.49134C13.302 5.00975 13.1288 5.87376 13.1288 7.9474V20.6657C13.1288 22.0136 12.921 22.6702 11.9857 23.1195V23.4651H19.6759V23.1195C18.9138 22.6702 18.7406 22.0136 18.7406 20.6657V11.6678C20.5032 10.2588 23.0014 10.8598 23.0014 13.8227V20.6657C23.0014 22.0136 22.8282 22.6702 22.0661 23.1195V23.4651H29.4446V23.1195C28.5093 22.6702 28.3015 22.0136 28.3015 20.6657Z" fill="white"/>
<path d="M56.2912 20.6657V12.7513C56.2912 7.12658 50.5242 6.63582 46.6102 10.7624C45.4476 7.25653 41.0656 7.1881 37.7238 10.2678V7.98195H37.3774C35.2989 9.01877 33.0473 9.74454 30.9688 10.0902V10.4358C32.2852 10.9542 32.112 11.8182 32.112 13.8918V20.6657C32.112 22.0136 31.9041 22.6702 30.9688 23.1195V23.4651H38.6591V23.1195C37.897 22.6702 37.7238 22.0136 37.7238 20.6657V11.4003C39.4437 10.3545 41.6036 11.0679 41.6036 13.8227V20.6657C41.6036 22.0136 41.4303 22.6702 40.6683 23.1195V23.4651H48.0467V23.1195C47.1114 22.6702 46.9036 22.0136 46.9036 20.6657V12.7513C46.9036 12.3411 46.8728 11.9585 46.8142 11.6025C48.5709 10.2785 50.9912 10.9065 50.9912 13.8227V20.6657C50.9912 22.0136 50.818 22.6702 50.0559 23.1195V23.4651H57.4344V23.1195C56.4991 22.6702 56.2912 22.0136 56.2912 20.6657Z" fill="white"/>
</g>
<defs>
<clipPath id="clip0_60_9">
<rect width="139.36" height="32" fill="white"/>
</clipPath>
</defs>
</svg>
