<svg preserveAspectRatio="none" width="100%" height="100%" overflow="visible" style="display: block;" viewBox="0 0 59.1071 39.4831" fill="none" xmlns="http://www.w3.org/2000/svg">
<g id="Group">
<path id="Vector" d="M23.8881 0.00668224H16.549L15.6519 4.1741H16.549V28.7136H20.9116V20.3722H23.8837C25.8643 20.3809 27.472 18.7732 27.472 16.7926V3.58408C27.472 1.60565 25.8687 0.000102382 23.8881 0.000102382M23.1094 16.2048H20.9073V4.16971H23.1094V16.2048Z" fill="var(--fill-0, #F7F7F7)"/>
<path id="Vector_2" d="M31.3697 4.17187H32.269V28.7114H42.1852V24.5439H36.6272V16.4438H40.5358V12.2742H36.6272V4.17187H42.1852V0.0066548H32.269L31.3697 4.17187Z" fill="var(--fill-0, #F7F7F7)"/>
<path id="Vector_3" d="M55.8653 13.3555L59.1071 0.0066548H54.501L52.4875 9.04117L50.3051 0.0066548H46.879L45.9819 4.17187H46.879L49.1075 13.3555V15.3625L45.8679 28.7114H50.474L52.4875 19.6725L54.6699 28.7114H59.1071L55.8653 15.3625V13.3555Z" fill="var(--fill-0, #F7F7F7)"/>
<path id="Vector_4" d="M9.4732 0.00683419H3.46115L1.32261 20.3789H0.87735V20.4688L0 24.5463H0.88393L0.445255 28.7137H4.34069L4.70041 24.5463H8.22517L8.58487 28.7137H12.4803L9.4732 0.00463867V0.00683419ZM5.0645 20.3789L6.46607 4.17205L7.86764 20.3789H5.0645Z" fill="var(--fill-0, #F7F7F7)"/>
<path id="Vector_5" d="M10.6291 35.5087V36.4321H0.647059L0.445265 35.5087H10.6291Z" fill="var(--fill-0, #F7F7F7)"/>
<path id="Vector_6" d="M48.9276 35.5087V36.4321H58.9097L59.1071 35.5087H48.9276Z" fill="var(--fill-0, #F7F7F7)"/>
<path id="Vector_7" d="M18.7073 39.4809H21.0827V38.5553H19.6263V36.4321H20.712V35.5087H19.6263V33.2232H21.0827V32.2998H18.7073V39.4809Z" fill="var(--fill-0, #F7F7F7)"/>
<path id="Vector_8" d="M15.3317 33.2232V32.2998H14.4083V39.4809H16.7837V38.5553H15.3317V33.2232Z" fill="var(--fill-0, #F7F7F7)"/>
<path id="Vector_9" d="M25.2699 32.2998H23.8771C23.5503 32.2998 23.2608 32.5871 23.2608 32.9161V38.8733C23.2608 39.2001 23.5481 39.4765 23.8771 39.4765H25.2699C25.6099 39.4765 25.8862 39.2001 25.8862 38.8733V35.5109H24.6777L24.4803 36.4343H24.9628V38.5575H24.1842V33.2254H24.9628V34.1444L25.8862 33.947V32.9161C25.8862 32.5893 25.6186 32.2998 25.2699 32.2998Z" fill="var(--fill-0, #F7F7F7)"/>
<path id="Vector_10" d="M28.0621 39.4809H30.4375V38.5553H28.9811V36.4321H30.0668V35.5087H28.9811V33.2232H30.4375V32.2998H28.0621V39.4809Z" fill="var(--fill-0, #F7F7F7)"/>
<path id="Vector_11" d="M34.6246 36.4321L33.4424 32.2998H32.6155V39.4809H33.5367V35.5087L34.7606 39.4809H35.5458V32.2998H34.6246V36.4321Z" fill="var(--fill-0, #F7F7F7)"/>
<path id="Vector_12" d="M39.733 32.2998H37.7239V39.4765H39.733C40.073 39.4765 40.3493 39.2001 40.3493 38.8733V32.9161C40.3493 32.5893 40.0817 32.2998 39.733 32.2998ZM39.4259 38.5553H38.6473V33.2232H39.4259V38.5553Z" fill="var(--fill-0, #F7F7F7)"/>
<path id="Vector_13" d="M44.5343 35.5087H43.4486V33.2232H44.2272V34.1422L45.1506 33.9448V32.9073C45.1506 32.5608 44.883 32.3042 44.5343 32.3042H43.1415C42.7752 32.3042 42.5252 32.5608 42.5252 32.9205V35.8333C42.5252 36.1404 42.7818 36.4365 43.1415 36.4365H44.2272V38.5597H43.4486V37.588L42.5252 37.7854V38.8799C42.5252 39.2067 42.8125 39.4831 43.1415 39.4831H44.5343C44.8743 39.4831 45.1506 39.2067 45.1506 38.8799V36.1316C45.1506 35.8048 44.883 35.5153 44.5343 35.5153" fill="var(--fill-0, #F7F7F7)"/>
<path id="Vector_14" d="M46.4469 32.4182H46.2342V32.2998H46.7825V32.4182H46.5654V33.2232H46.4469V32.4182Z" fill="var(--fill-0, #F7F7F7)"/>
<path id="Vector_15" d="M47.3352 33.2232V32.7253L47.2365 33.0258H47.1422L47.0523 32.7253V33.2232H46.9295V32.2998H47.0479L47.1905 32.7626L47.3352 32.2998H47.4537V33.2232H47.3352Z" fill="var(--fill-0, #F7F7F7)"/>
</g>
</svg>
