<svg preserveAspectRatio="none" width="100%" height="100%" overflow="visible" style="display: block;" viewBox="0 0 64 16.658" fill="none" xmlns="http://www.w3.org/2000/svg">
<g id="Group">
<path id="7" d="M61.7834 12.8208H63.8644L61.4378 16.1768C61.2913 16.3795 61.047 16.5016 60.7857 16.5016H59.8184H59.1235L61.7834 12.822V12.8208ZM63.3454 11.2551H57.404L58.2076 12.1405C58.4665 12.4373 58.6643 12.6021 58.8829 12.6693H63.9719L64 12.6302V11.8718C64 11.5311 63.7057 11.2551 63.343 11.2551H63.3454Z" fill="var(--fill-0, #F7F7F7)"/>
<g id="COD Black Ops">
<path id="Black Ops" d="M25.8797 11.3675H20.8041C20.5428 11.3675 20.3413 11.4676 20.1972 11.6679C20.053 11.8682 19.9822 12.1539 19.9822 12.5264V15.499C19.9822 15.8666 20.0543 16.1511 20.1972 16.3538C20.3413 16.5566 20.5428 16.6579 20.8041 16.6579H25.8797C26.1435 16.6579 26.3462 16.5566 26.4891 16.3538C26.6307 16.1511 26.7016 15.8666 26.7016 15.499V14.4658H24.8746V14.9616C24.8746 14.9946 24.8672 15.0202 24.8526 15.0386C24.8379 15.0569 24.8184 15.0666 24.7952 15.0666H21.8886C21.8654 15.0666 21.8471 15.0569 21.8312 15.0386C21.8165 15.0202 21.8092 14.9946 21.8092 14.9616V13.0638C21.8092 13.0308 21.8165 13.0052 21.8312 12.9868C21.8459 12.9685 21.8654 12.9588 21.8886 12.9588H24.7952C24.8184 12.9588 24.8367 12.9685 24.8526 12.9868C24.8672 13.0052 24.8746 13.0308 24.8746 13.0638V13.5523H26.7016V12.5264C26.7016 12.1539 26.6307 11.8682 26.4891 11.6679C26.3474 11.4676 26.1447 11.3675 25.8797 11.3675ZM41.1808 11.3467H35.9783C35.7169 11.3467 35.5154 11.4468 35.3713 11.6471C35.2272 11.8474 35.1563 12.1332 35.1563 12.5057V15.477C35.1563 15.8446 35.2284 16.1291 35.3713 16.3319C35.5154 16.5346 35.7169 16.6347 35.9783 16.6347H41.1808C41.4446 16.6347 41.6473 16.5334 41.7902 16.3319C41.9319 16.1291 42.0027 15.8446 42.0027 15.477V12.5057C42.0027 12.1332 41.9319 11.8474 41.7902 11.6471C41.6485 11.4468 41.4458 11.3467 41.1808 11.3467ZM40.1708 14.9396C40.1708 14.9726 40.1635 14.9983 40.1488 15.0166C40.1342 15.0349 40.1146 15.0447 40.0914 15.0447H37.0615C37.0383 15.0447 37.02 15.0349 37.0041 15.0166C36.9894 14.9983 36.9821 14.9726 36.9821 14.9396V13.0418C36.9821 13.0088 36.9894 12.9832 37.0041 12.9649C37.0188 12.9465 37.0383 12.9368 37.0615 12.9368H40.0914C40.1146 12.9368 40.133 12.9465 40.1488 12.9649C40.1635 12.9832 40.1708 13.0088 40.1708 13.0418V14.9396ZM48.098 11.3748H42.3459V16.6067H44.1729V15.2608H48.0992C48.3594 15.2608 48.5609 15.1607 48.7037 14.9604C48.8454 14.7601 48.9163 14.4768 48.9163 14.1092V12.5252C48.9163 12.1576 48.8454 11.8743 48.7037 11.674C48.5621 11.4737 48.3606 11.3736 48.0992 11.3736L48.098 11.3748ZM47.0831 13.6903C47.0831 13.7233 47.0758 13.7489 47.0612 13.7672C47.0465 13.7855 47.027 13.7953 47.0038 13.7953H44.1717V12.833H47.0038C47.0563 12.833 47.0831 12.8708 47.0831 12.9441V13.6903ZM6.02202 14.0603H5.96706V13.893H5.98172C6.21621 13.893 6.39206 13.8087 6.5093 13.6414C6.62654 13.4741 6.68516 13.2115 6.68516 12.8525V12.4055C6.68516 12.0941 6.60701 11.8474 6.45191 11.6654C6.29681 11.4835 6.08186 11.3931 5.8083 11.3931H0V16.6262H5.8425C6.11972 16.6262 6.33955 16.5322 6.5032 16.3441C6.66684 16.156 6.74867 15.8873 6.74867 15.538V15.0569C6.74867 14.3913 6.50564 14.0591 6.0208 14.0591L6.02202 14.0603ZM1.82822 12.6644H4.7739C4.82641 12.6644 4.85328 12.7023 4.85328 12.7756V13.2848C4.85328 13.3593 4.82641 13.396 4.7739 13.396H1.82822V12.6632V12.6644ZM4.91801 15.2462C4.91801 15.3207 4.89114 15.3573 4.83862 15.3573H1.82822V14.5549H4.83862C4.89114 14.5549 4.91801 14.5928 4.91801 14.6661V15.2449V15.2462ZM54.9835 13.4314L50.8202 13.1175C50.7603 13.1175 50.731 13.076 50.731 12.9917V12.8867C50.731 12.8537 50.7371 12.8293 50.7506 12.8134C50.764 12.7975 50.7799 12.789 50.8007 12.789H54.1274C54.1542 12.789 54.1725 12.7963 54.1823 12.8098C54.1921 12.8232 54.197 12.8476 54.197 12.8794V13.1224L55.6649 12.8415L55.6674 12.3835C55.6674 12.0538 55.6051 11.7973 55.4817 11.6166C55.3584 11.4346 55.1825 11.3442 54.9542 11.3442H49.9739C49.7394 11.3442 49.5574 11.4346 49.4292 11.6166C49.3009 11.7986 49.2362 12.0538 49.2362 12.3835V13.4717C49.2362 14.1324 49.4792 14.4804 49.9641 14.5183L54.1274 14.8248C54.1603 14.8297 54.1835 14.8407 54.197 14.8602C54.2104 14.8786 54.2165 14.9067 54.2165 14.9445V15.0911C54.2165 15.1558 54.1933 15.1888 54.1469 15.1888H50.7262C50.6834 15.1888 50.6614 15.1582 50.6614 15.0984V14.7894H49.1861V15.593C49.1861 15.9227 49.2484 16.1792 49.3742 16.36C49.5 16.5419 49.6759 16.6323 49.9042 16.6323H54.9688C55.207 16.6323 55.3889 16.5419 55.5159 16.36C55.6429 16.178 55.7064 15.9227 55.7064 15.593V14.4914C55.7064 14.1751 55.649 13.9235 55.533 13.7379C55.417 13.5523 55.2338 13.4497 54.9835 13.4314ZM8.84923 11.3943H7.02223V16.6274H12.3445V14.848H8.84923V11.3943ZM14.7455 11.3943L12.4287 16.6274H14.4096L14.8053 15.6296H17.4884L17.8841 16.6274H19.9883L17.6362 11.3943H14.7442H14.7455ZM15.35 14.2618L15.9789 12.6779H16.3209L16.9449 14.2618H15.3512H15.35ZM33.4454 11.3943H30.9943L29.2113 13.0833H28.8632V11.3943H27.0362V16.6274H28.8632V14.8627H29.2161L30.954 16.6274H33.4747L30.7659 13.9968L33.4441 11.3943H33.4454Z" fill="var(--fill-0, #F7F7F7)"/>
<path id="COD&#194;&#174;" d="M29.5434 2.04805C29.5105 2.01385 29.4641 1.99798 29.4164 1.99798H27.532C27.4844 1.99798 27.4368 2.01385 27.405 2.04805C27.2902 2.17017 27.1962 2.28864 27.0411 2.4877C27.0179 2.51823 27.0057 2.55976 27.0057 2.59884V5.7167C27.0057 5.75578 27.0179 5.79731 27.0411 5.82784C27.1962 6.02691 27.2902 6.14537 27.405 6.26749C27.438 6.30169 27.4844 6.31757 27.532 6.31757H29.4164C29.4641 6.31757 29.5117 6.30169 29.5434 6.26749C29.6582 6.14537 29.7523 6.02691 29.9074 5.82784C29.9306 5.79731 29.9428 5.75578 29.9428 5.7167V2.59884C29.9428 2.55976 29.9306 2.51823 29.9074 2.4877C29.7535 2.28864 29.6582 2.17017 29.5434 2.04805ZM28.8168 5.38575H28.1317V2.92857H28.8168V5.38575ZM16.1401 0.11724C16.0669 0.0390792 15.9631 0.00366362 15.8556 0.00366362H12.1344C12.0269 0.00366362 11.9231 0.0390792 11.8499 0.11724C11.5934 0.390801 11.1782 0.860984 10.8313 1.30674C10.7776 1.37513 10.752 1.46917 10.752 1.55588V9.99599H13.2714V7.05276H14.7174V9.99599H17.2368V1.55588C17.2368 1.46917 17.2112 1.37513 17.1574 1.30674C16.8106 0.860984 16.3954 0.390801 16.1389 0.11724M14.7174 5.39063H13.2714V1.66823H14.7174V5.39063ZM9.08005 0.11724C9.00678 0.0390792 8.90297 0.00366362 8.7955 0.00366362H5.07554C4.96807 0.00366362 4.86427 0.0390792 4.79099 0.11724C4.53453 0.390801 4.11808 0.860984 3.77246 1.30674C3.71873 1.37513 3.69308 1.46917 3.69308 1.55588V8.445C3.69308 8.5317 3.71873 8.62574 3.77246 8.69413C4.1193 9.13989 4.53453 9.61007 4.79099 9.88363C4.86427 9.96057 4.96807 9.99722 5.07554 9.99722H8.79672C8.90419 9.99722 9.00799 9.96179 9.08127 9.88363C9.33773 9.61007 9.75296 9.13989 10.0998 8.69413C10.1535 8.62574 10.1792 8.5317 10.1792 8.445V5.67762H7.65973V8.33142H6.21376V1.66823H7.65973V4.32203H10.1792V1.55466C10.1792 1.46795 10.1535 1.37391 10.0998 1.30552C9.75296 0.859762 9.33773 0.389579 9.08127 0.116017M25.7185 0.00244117H22.9596V9.99477H27.6505V8.10915H25.7197V0.00244117H25.7185ZM20.555 0.00244117H17.7962V9.99477H22.487V8.10915H20.5562V0.00244117H20.555ZM39.4503 0.11724C39.377 0.0390792 39.2732 0.00244117 39.1657 0.00244117H34.0633V9.99477H39.1657C39.2732 9.99477 39.377 9.95936 39.4503 9.8812C39.7067 9.60763 40.122 9.13745 40.4688 8.69169C40.5225 8.6233 40.5482 8.52926 40.5482 8.44255V1.55466C40.5482 1.46795 40.5225 1.37391 40.4688 1.30552C40.122 0.859762 39.7067 0.389579 39.4503 0.116017M38.0287 8.32897H36.5828V1.66579H38.0287V8.32897ZM60.2739 4.35745V0.00121872H57.9181V3.71506L57.3087 4.44049H57.0547L56.4416 3.71506V0.00121872H54.0907V4.35745C54.0907 4.44293 54.12 4.52476 54.175 4.59071L55.8225 6.5838V9.99355H58.5361V6.5838L60.1885 4.59071C60.2434 4.52476 60.2727 4.44171 60.2727 4.35745M48.153 2.04683H49.616V9.99233H52.1355V2.04683H53.5985V0.00121872H48.153V2.04683ZM30.4203 6.31512H31.5463V4.88869H32.7517V3.88482H31.5463V2.99696H32.9068V1.99309H30.4203V6.3139V6.31512ZM45.0937 8.32775H43.6465V0H41.1271V8.44011C41.1271 8.52682 41.1527 8.62086 41.2065 8.68925C41.5533 9.13501 41.9685 9.60519 42.225 9.87875C42.2983 9.95569 42.4021 9.99233 42.5095 9.99233H46.2307C46.3382 9.99233 46.442 9.95691 46.5153 9.87875C46.7717 9.60519 47.1869 9.13501 47.5338 8.68925C47.5875 8.62086 47.6132 8.52682 47.6132 8.44011V0H45.0937V8.32775ZM60.782 9.04585C60.7686 9.0312 60.7515 9.02265 60.7307 9.01899V8.98846H60.793C60.8455 8.98846 60.8846 8.9738 60.9139 8.94571C60.942 8.91762 60.9566 8.87854 60.9566 8.82969V8.64039C60.9566 8.58299 60.9408 8.53903 60.9078 8.5085C60.876 8.47797 60.8296 8.46209 60.7698 8.46209H60.0321V9.43543H60.2117V9.04463H60.5793L60.7588 9.43543H60.9774L60.8259 9.12035C60.8101 9.08615 60.7954 9.06295 60.782 9.04707M60.2117 8.90174V8.6062H60.7515C60.76 8.6062 60.7661 8.60864 60.771 8.61231C60.7759 8.61719 60.7771 8.62329 60.7771 8.63184V8.8761C60.7771 8.88587 60.7747 8.89198 60.771 8.89686C60.7673 8.90053 60.76 8.90174 60.7515 8.90174H60.2117ZM60.4791 7.93329C59.9088 7.93329 59.4472 8.39492 59.4472 8.96403C59.4472 9.53314 59.9088 9.99477 60.4791 9.99477C61.0494 9.99477 61.5123 9.53314 61.5123 8.96403C61.5123 8.39492 61.0494 7.93329 60.4791 7.93329ZM60.4791 9.83479C59.9967 9.83479 59.6059 9.4452 59.6059 8.96403C59.6059 8.48285 59.9967 8.09205 60.4791 8.09205C60.9615 8.09205 61.3523 8.48163 61.3523 8.96403C61.3523 9.44643 60.9615 9.83479 60.4791 9.83479Z" fill="var(--fill-0, #F7F7F7)"/>
</g>
</g>
</svg>
