<svg width="100%" height="100%" style="display: block;" viewBox="0 0 64 15.9881" fill="none" xmlns="http://www.w3.org/2000/svg">
<g id="Group">
<path id="Vector" d="M0 13.4077V2.56459L2.58366 0.000113583H9.63598L12.2005 2.56459V5.99562H9.4649V3.60062L8.35213 2.48785H3.97782L2.82828 3.60062V12.3876L3.97782 13.5004H8.35213L9.4649 12.3876V9.99262H12.2005V13.4237L9.63598 15.9881H2.58366L0 13.4237V13.4045V13.4077Z" fill="var(--fill-0, #F7F7F7)"/>
<path id="Vector_2" d="M13.5211 0H16.3126V6.54389L16.3877 6.61904H22.6854L22.7605 6.54389V0H25.5888V15.9528H22.7605V9.2027L22.6854 9.12756H16.3877L16.3126 9.2027V15.9528H13.5211V0Z" fill="var(--fill-0, #F7F7F7)"/>
<path id="Vector_3" d="M27.1173 0H37.7333V2.43177H29.9839L29.9088 2.50692V6.67339L29.9839 6.74854H37.4327V9.14354H29.9839L29.9088 9.21868V13.4811L29.9839 13.5562H37.7333V15.988H27.1173V0Z" fill="var(--fill-0, #F7F7F7)"/>
<path id="Vector_4" d="M38.902 13.4635V11.0493H41.6376V12.5394L42.7503 13.633H46.9744L48.0679 12.5394V10.0325L47.163 9.14674H41.2986L38.9612 6.8093V2.48933L41.4665 0H48.3126L50.8019 2.48933V4.92111H48.0663V3.43103L46.9728 2.33745H42.8239L41.7303 3.43103V5.80685L42.6352 6.71176H48.4996L50.8371 9.01244V13.4619L48.3301 15.9512H41.4105L38.9036 13.4619L38.902 13.4635Z" fill="var(--fill-0, #F7F7F7)"/>
<path id="Vector_5" d="M52.0633 13.4635V11.0493H54.7989V12.5394L55.9117 13.633H60.1357L61.2293 12.5394V10.0325L60.3243 9.14674H54.4599L52.1225 6.8093V2.48933L54.6294 0H61.4755L63.9648 2.48933V4.92111H61.2293V3.43103L60.1357 2.33745H55.9868L54.8932 3.43103V5.80685L55.7981 6.71176H61.6625L64 9.01244V13.4619L61.4931 15.9512H54.5735L52.0665 13.4619L52.0633 13.4635Z" fill="var(--fill-0, #F7F7F7)"/>
</g>
</svg>
