<svg width="100%" height="100%" style="display: block;" viewBox="0 0 98 15.0207" fill="none" xmlns="http://www.w3.org/2000/svg">
<g id="Group">
<path id="Vector" d="M27.9549 1.84597L20.5391 1.77208V2.11595C20.5391 2.11595 21.9216 1.90991 22.1561 2.77953C22.1788 3.35216 22.1206 12.4248 22.1206 12.4248C22.1206 12.4248 22.0495 13.249 20.8076 13.2149C20.819 13.3413 20.8076 13.3811 20.8076 13.3811C20.8076 13.3811 23.8484 13.3129 25.2083 13.5531C35.0696 15.2909 36.0372 1.92697 27.9549 1.84739M30.8451 10.5876C29.9158 12.8184 25.2395 13.7932 24.2022 11.9588L24.1426 2.65022C32.0117 2.11453 31.9279 7.99009 30.8451 10.5876Z" fill="var(--fill-0, white)"/>
<path id="Vector_2" d="M44.5031 1.54628C41.1384 1.54628 38.0592 3.81126 38.0592 7.67904C38.0592 11.5468 41.2321 13.6512 44.5969 13.6512C47.9617 13.6512 51.0934 11.2598 51.0934 7.39201C51.0934 3.52422 47.8665 1.54628 44.5031 1.54628ZM45.4111 12.928C43.1234 12.928 40.7902 11.8623 40.2517 7.65347C40.2517 5.02331 40.8982 2.5182 43.9646 2.31643C46.5805 2.1445 48.8142 4.74196 48.8142 7.37211C48.8725 10.0818 48.1564 12.6765 45.4111 12.928Z" fill="var(--fill-0, white)"/>
<path id="Vector_3" d="M65.5727 1.66713C65.2687 1.76944 64.9163 1.8277 64.6946 1.8277C64.4729 1.8277 56.2003 1.81633 56.2003 1.81633C56.2003 1.81633 55.8251 1.61029 55.4386 1.57619L55.0749 3.18895C55.0749 3.18895 54.9456 3.50866 55.0976 4.03583C55.2383 3.66923 55.261 3.09801 56.0937 2.77688C56.9377 2.74278 59.4215 2.74278 59.4215 2.74278L59.3746 12.4918C59.3746 12.4918 59.3576 13.3501 58.1157 13.235C58.1043 13.3785 58.1043 13.4126 58.1043 13.4126L63.1884 13.3898L63.1827 13.2065C63.1827 13.2065 61.6012 13.4296 61.5188 12.4975C61.5075 12.0059 61.425 2.7442 61.425 2.7442L64.3536 2.81241C64.3536 2.81241 65.361 2.83514 65.3497 4.03725C65.4903 4.11682 65.5727 4.00315 65.5841 3.86532C65.5955 3.72748 65.6424 2.22982 65.6424 2.22982C65.6424 2.22982 65.8882 1.71544 65.5727 1.66855" fill="var(--fill-0, white)"/>
<path id="Vector_4" d="M81.6464 10.0107C81.3295 9.98794 78.7761 9.98794 78.7761 9.98794L75.2905 1.57316C75.2905 1.57316 75.103 1.02326 74.9452 1.53053L70.3997 12.4462C70.3997 12.4462 69.9364 13.3556 68.6661 13.276C68.6661 13.3726 68.6604 13.4252 68.6604 13.4252L72.8138 13.4309L72.8025 13.2191C72.8025 13.2191 71.4611 13.3215 71.6373 12.6692C71.8007 12.1193 72.2881 10.805 72.2881 10.805L76.9388 10.8164L77.8525 12.9335C77.8525 12.9335 77.9576 13.185 77.5242 13.2078V13.3882L81.6719 13.4451L81.6606 13.1822C81.6606 13.1822 80.6645 13.4564 80.1146 12.7133C79.704 12.0384 79.1185 10.8021 79.1185 10.8021C79.1185 10.8021 79.7508 10.859 80.1146 10.6416C80.4897 10.4924 81.159 10.2977 81.9774 10.2977C82.0826 10.1712 81.9547 10.0348 81.6492 10.0121M72.5751 10.0178L74.6838 4.70917L76.629 9.97232L72.5751 10.0178Z" fill="var(--fill-0, white)"/>
<path id="Vector_5" d="M96.1455 12.011C95.6042 12.0323 93.2937 12.1176 91.9964 12.0977C93.7768 10.816 95.6042 8.89349 96.0731 8.32227C100.596 2.00621 93.6007 0.461661 90.4263 2.28188C90.3325 2.76216 90.7076 4.77562 90.7076 4.77562C91.3542 1.17497 95.2276 1.63678 95.3541 4.83814C95.5019 8.59794 90.7275 12.1872 89.8764 12.973C89.3606 13.4078 89.9233 13.3964 89.9233 13.3964C89.9233 13.3964 95.8514 13.3623 96.7068 13.3737C97.5622 13.4419 97.5736 12.7215 97.5736 12.7215L97.9999 10.2903C97.5153 10.3031 97.5622 11.9556 96.1455 12.011Z" fill="var(--fill-0, white)"/>
<path id="Vector_6" d="M15.2632 3.37614L15.07 1.53603L15.2177 1.07565L15.2234 0.602475C14.8099 0.369442 14.8639 0.343867 14.5783 0.346709C14.3211 0.34813 13.9744 0.335341 13.7272 0.279924C13.4103 0.208878 13.4956 0.159146 13.1489 0.507275L12.9911 0.171932C12.4952 0.136409 10.9052 0 10.5272 0C10.0441 0 10.1137 0.0355218 9.95033 0.571214L9.25691 0.640843L9.16455 0.348131L8.5365 0.341024L8.60328 0.269977C8.72548 0.156302 8.68286 0.201773 8.77948 0H6.25164C6.1678 0.150619 6.01576 0.265715 5.8353 0.323973C5.5838 0.404966 5.70742 0.274241 5.54969 0.413493C5.43033 0.517221 5.41044 0.511538 5.22288 0.507275C4.97422 0.503012 4.71844 0.494486 4.46836 0.484539C4.35326 0.480277 4.2268 0.491643 4.11739 0.466067C3.94688 0.42628 3.99661 0.383653 3.90425 0.275662L0.148717 0.350971C-0.0544766 1.08133 0.148717 0.711888 0.148717 1.47351V2.85324C0.117457 3.25252 0.00946823 3.45429 0.00946823 3.98856C0.00946823 4.1676 -0.0317394 4.57967 0.0577795 4.72035C0.214082 4.96901 0.209816 5.17931 0.2766 5.53881C0.334859 5.85852 0.398802 5.82441 0.251025 6.06597L0.182823 6.67698L0.503951 6.9839L0.506796 7.51959C0.31639 7.6901 0.529527 7.56932 0.125982 7.85351L0.161505 9.47196L0.559369 9.7533L0.475535 11.133C0.0563589 11.4272 0.145878 11.7824 0.160087 12.149L0.211239 13.5259L0.118879 14.2307C1.05954 14.4623 0.853504 14.3898 1.92773 14.3898C2.87692 14.3898 2.75471 14.3998 3.69395 14.2875L3.71811 14.4438C3.86304 14.4353 4.01366 14.4268 4.15718 14.414C4.55646 14.3756 4.39731 14.3316 4.53514 14.2818C4.63461 14.2463 5.70458 14.4893 5.87935 14.5262C5.97598 14.4211 5.92624 14.4637 6.06123 14.3799C6.1337 14.5291 6.44346 14.8715 6.5685 15.0207L6.95642 14.6655L7.6342 14.9227L7.83314 14.7593C7.91129 14.8488 7.95818 14.961 8.09601 14.9781C8.29778 15.0037 8.33047 14.6783 8.77522 14.6697L11.3514 14.5859C11.3841 14.5546 11.4039 14.5362 11.4395 14.5021L11.5716 14.3969C11.7407 14.4964 11.8132 14.593 12.0448 14.5774C12.7553 14.5319 12.383 14.745 13.3009 14.6967C13.4586 14.6882 13.4203 14.6498 13.5595 14.603L13.8565 14.5575C13.7911 14.3884 13.7499 14.4125 13.622 14.2861L15.2533 14.6086C15.2319 12.733 15.2348 10.4439 15.2604 8.51425L14.8213 8.54693C14.8369 8.42188 15.0288 8.46877 15.043 8.21727C15.0614 7.9004 15.0586 6.81339 15.0117 6.58036C14.9875 6.46242 14.6778 6.11571 14.5954 6.00771C14.6934 5.74626 14.7034 5.76332 14.8852 5.55018C14.8696 5.40951 14.8355 5.37255 14.7744 5.21341L15.2533 5.05995C15.2589 4.7914 15.2902 3.71291 15.2717 3.3733M9.16598 3.17011L10.2416 2.93423C10.8015 2.79782 10.8881 2.76088 11.3528 2.54774C11.5944 2.63015 12.1798 2.95555 12.3233 3.13174C12.4441 3.27952 12.4085 3.29373 12.3645 3.50687L12.1272 5.32567C11.7975 5.33703 11.8928 5.29867 11.6881 5.1651C11.3457 4.94059 10.1692 4.09229 9.79119 3.79532L9.06509 3.22553C9.11908 3.17721 9.04661 3.20279 9.16739 3.17153M5.04384 12.0851C4.38026 12.3081 3.77495 12.6648 3.19662 12.4744C3.10995 12.446 2.71635 12.0794 2.53589 11.9543C2.42932 11.8804 2.32701 11.8122 2.20481 11.727C1.85242 11.4868 1.75153 11.6517 2.21902 10.5888C2.34122 10.3103 2.44495 10.0602 2.56147 9.7874C2.66377 9.54868 2.80303 9.16362 2.92096 8.96895C3.07016 9.05989 3.16678 9.15082 3.31172 9.2645L4.48541 10.3274C4.72982 10.5547 5.35645 11.1728 5.598 11.4471C5.76283 11.6346 5.83388 11.6545 5.95466 11.8378C5.91061 11.8534 5.36213 11.9771 5.04384 12.0836M13.3819 10.2634C13.1872 11.1245 12.9428 11.4897 12.5478 12.3181C11.9794 12.3394 11.5304 12.3351 10.9748 12.3266C10.7944 12.3238 10.8398 12.3607 10.7404 12.2669C10.415 11.9586 9.82387 11.2836 9.49421 10.971C9.38054 10.863 9.27823 10.7622 9.16598 10.6456C8.25658 9.69931 8.68712 9.98492 8.5095 9.74904L6.67934 8.05955C6.25874 7.66026 5.88077 7.23114 5.44596 6.78213C5.33513 6.66703 5.27829 6.55762 5.16178 6.45247L5.1291 6.42405C5.09784 6.39421 5.10921 6.407 5.08079 6.37432L4.54935 5.78463C4.45557 5.70079 4.4641 5.70221 4.39589 5.62691L3.91704 5.14521C3.81189 5.03721 3.72947 4.92638 3.63001 4.80987L3.17247 4.33669C3.10426 4.26991 3.05453 4.2486 2.98775 4.18039C2.77034 3.96015 2.58704 3.74842 2.36822 3.52676C2.19202 3.35056 1.76432 3.01096 1.71459 2.9115C1.96041 2.77651 2.09256 2.87882 2.50747 2.58468C2.6183 2.50653 2.87549 2.51363 3.03037 2.53495C3.19094 2.55626 3.56323 2.85892 3.73374 2.96123C3.83178 3.02091 4.27512 3.35056 4.34758 3.46424L4.5664 3.80953C4.86764 3.82374 4.81507 3.80668 5.19588 4.0795L8.83632 6.42547C9.61925 6.9569 10.5329 7.4997 11.3201 8.03539L13.5638 9.47053C13.4984 9.60694 13.4231 10.0759 13.3805 10.2634" fill="var(--fill-0, white)"/>
</g>
</svg>
