<svg width="100%" height="100%" style="display: block;" viewBox="0 0 52 45.0156" fill="none" xmlns="http://www.w3.org/2000/svg">
<g id="Group">
<path id="Vector" d="M29.2194 9.98059H28.7511V10.556H29.2194C29.2611 10.556 29.2968 10.5401 29.3226 10.5104C29.3484 10.4806 29.3603 10.4409 29.3603 10.3933V10.1453C29.3603 10.0977 29.3464 10.058 29.3226 10.0262C29.2968 9.99448 29.263 9.97861 29.2194 9.97861V9.98059Z" fill="var(--fill-0, white)"/>
<path id="Vector_2" d="M25.9891 9.98052H25.503V10.6055H25.9891C26.0308 10.6055 26.0665 10.5897 26.0923 10.5599C26.1201 10.5282 26.134 10.4885 26.134 10.4409V10.1472C26.134 10.0976 26.1201 10.0599 26.0923 10.0281C26.0645 9.99639 26.0308 9.98052 25.9891 9.98052Z" fill="var(--fill-0, white)"/>
<path id="Vector_3" d="M27.5804 9.98052H27.2391C27.1935 9.98052 27.1598 9.99639 27.134 10.0281C27.1082 10.0599 27.0943 10.0996 27.0943 10.1472V11.179C27.0943 11.2246 27.1082 11.2643 27.134 11.296C27.1617 11.3278 27.1955 11.3437 27.2391 11.3437H27.5804C27.6241 11.3437 27.6578 11.3278 27.6836 11.296C27.7114 11.2643 27.7253 11.2246 27.7253 11.179V10.1472C27.7253 10.0996 27.7114 10.0599 27.6836 10.0281C27.6558 9.99639 27.6221 9.98052 27.5804 9.98052Z" fill="var(--fill-0, white)"/>
<path id="Vector_4" d="M15.3657 9.03408L17.2308 12.2505H34.7692L36.6343 9.03408H15.3676H15.3657ZM20.0821 9.65514H21.7469L21.4909 10.0559H19.8281L20.0841 9.65514H20.0821ZM22.8878 11.6651L22.6318 11.2623H21.8699L22.1258 10.8595H22.3758L22.0862 10.4032L21.2865 11.6651H20.8004H19.1813L19.6932 10.8595H19.3162L19.5722 10.4587H21.1397L20.8837 10.8595H20.1813L19.9214 11.2623H21.0524L22.0862 9.63927L23.3739 11.6631H22.8878V11.6651ZM24.8759 11.2385C24.8759 11.3576 24.8343 11.4588 24.7509 11.5401C24.6676 11.6235 24.5644 11.6651 24.4454 11.6651H23.9374C23.8164 11.6651 23.7152 11.6235 23.6338 11.5461C23.5525 11.4647 23.5128 11.3675 23.5128 11.2445V11.0441H23.8243L23.8719 11.2286C23.8918 11.304 23.9454 11.3437 24.0327 11.3437H24.3759C24.4196 11.3437 24.4553 11.3278 24.4811 11.2961C24.5069 11.2643 24.5208 11.2246 24.5208 11.177V10.9568C24.5208 10.8476 24.4732 10.7941 24.3759 10.7941H23.9454C23.8263 10.7941 23.7251 10.7524 23.6398 10.6691C23.5564 10.5837 23.5148 10.4845 23.5148 10.3655V10.0738C23.5148 9.95673 23.5564 9.85753 23.6398 9.77419C23.7251 9.69085 23.8263 9.64918 23.9454 9.64918H24.4454C24.5644 9.64918 24.6636 9.68887 24.747 9.76824C24.8283 9.84761 24.87 9.94681 24.87 10.0678V10.2484H24.5585L24.5109 10.0857C24.4851 10.0083 24.4335 9.96864 24.3541 9.96864H24.0148C23.9711 9.96864 23.9354 9.98451 23.9096 10.0143C23.8819 10.046 23.87 10.0857 23.87 10.1333V10.302C23.87 10.4091 23.9176 10.4607 24.0148 10.4607H24.4454C24.5624 10.4607 24.6636 10.5044 24.749 10.5877C24.8343 10.673 24.8759 10.7722 24.8759 10.8893V11.2306V11.2385ZM26.4911 10.5024C26.4911 10.6195 26.4494 10.7207 26.3641 10.804C26.2788 10.8873 26.1776 10.929 26.0585 10.929H25.503V11.6671H25.1438V9.65514H26.0605C26.1796 9.65514 26.2828 9.69681 26.3661 9.78014C26.4514 9.86348 26.4931 9.96268 26.4931 10.0798V10.5024H26.4911ZM28.0824 11.2346C28.0824 11.3556 28.0407 11.4588 27.9554 11.5401C27.8701 11.6235 27.7689 11.6651 27.6499 11.6651H27.1657C27.0467 11.6651 26.9435 11.6235 26.8602 11.5401C26.7768 11.4568 26.7332 11.3556 26.7332 11.2346V10.0778C26.7332 9.96269 26.7748 9.86149 26.8602 9.77816C26.9435 9.69482 27.0467 9.65315 27.1657 9.65315H27.6499C27.7709 9.65315 27.8721 9.69482 27.9554 9.77617C28.0407 9.85752 28.0824 9.95872 28.0824 10.0758V11.2326V11.2346ZM29.4198 11.6671L29.0904 10.8794H28.7511V11.6671H28.392V9.65514H29.2868C29.4079 9.65514 29.5091 9.69681 29.5924 9.78014C29.6757 9.86348 29.7174 9.96268 29.7174 10.0798V10.429C29.7174 10.5202 29.6916 10.6036 29.64 10.677C29.5884 10.7504 29.5229 10.802 29.4436 10.8357L29.7988 11.6671H29.4178H29.4198ZM31.2611 9.98054H30.7432V11.6671H30.3841V9.98054H29.8682V9.65712H31.2611V9.98054ZM32.8088 11.2385C32.8088 11.3576 32.7671 11.4588 32.6838 11.5401C32.6004 11.6235 32.4973 11.6651 32.3782 11.6651H31.8723C31.7512 11.6651 31.65 11.6235 31.5687 11.5461C31.4873 11.4647 31.4476 11.3675 31.4476 11.2445V11.0441H31.7591L31.8068 11.2286C31.8286 11.304 31.8822 11.3437 31.9675 11.3437H32.3108C32.3544 11.3437 32.3901 11.3278 32.4159 11.2961C32.4417 11.2643 32.4556 11.2246 32.4556 11.177V10.9568C32.4556 10.8476 32.408 10.7941 32.3108 10.7941H31.8802C31.7591 10.7941 31.658 10.7524 31.5746 10.6691C31.4913 10.5837 31.4476 10.4845 31.4476 10.3655V10.0738C31.4476 9.95673 31.4893 9.85753 31.5746 9.77419C31.658 9.69085 31.7591 9.64918 31.8802 9.64918H32.3802C32.4993 9.64918 32.6004 9.68887 32.6818 9.76824C32.7651 9.84761 32.8048 9.94681 32.8048 10.0678V10.2484H32.4933L32.4457 10.0857C32.4219 10.0083 32.3683 9.96864 32.2889 9.96864H31.9496C31.906 9.96864 31.8703 9.98451 31.8445 10.0143C31.8187 10.046 31.8048 10.0857 31.8048 10.1333V10.302C31.8048 10.4091 31.8524 10.4607 31.9496 10.4607H32.3802C32.4973 10.4607 32.5985 10.5044 32.6838 10.5877C32.7691 10.673 32.8108 10.7722 32.8108 10.8893V11.2306L32.8088 11.2385ZM33.029 9.75435H32.9516V9.91507H32.914V9.75435H32.8366V9.71863H33.029V9.75435ZM33.2909 9.91507H33.2552V9.79403C33.2552 9.79403 33.2552 9.78213 33.2552 9.77419C33.2513 9.78213 33.2513 9.78808 33.2453 9.79403L33.1838 9.88927H33.1759L33.1124 9.79205C33.1124 9.79205 33.1044 9.78014 33.1024 9.7722C33.1024 9.78014 33.1044 9.78609 33.1044 9.79205V9.91308H33.0727V9.71665H33.1044L33.1818 9.8357L33.2592 9.71665H33.289V9.91308L33.2909 9.91507Z" fill="var(--fill-0, white)"/>
<path id="Vector_5" d="M21.6774 13.2902L19.7507 16.5959L17.834 13.2902H21.6774Z" fill="var(--fill-0, white)"/>
<path id="Vector_6" d="M30.6897 19.2845L25.999 27.3761C25.999 27.3761 23.6914 23.3978 23.6874 23.3879C23.4553 22.9553 23.4553 22.2033 23.6835 21.743C23.6874 21.743 28.1479 14.082 28.1479 14.082C28.1479 14.082 28.6499 13.2883 29.5012 13.2883H34.166L31.0349 18.6913H28.6182L30.5349 15.4034H29.8464L25.6578 22.5922L26.001 23.1835L28.2749 19.2826H30.6937L30.6897 19.2845Z" fill="var(--fill-0, white)"/>
<path id="Vector_7" d="M21.3024 19.2726L20.094 17.1872L21.9017 14.0858C21.9017 14.0858 22.4195 13.2902 23.3005 13.2902H27.9217L26.6955 15.3954H23.5604L23.2152 15.9867H26.3502L25.1121 18.1118H21.979L21.3024 19.2726Z" fill="var(--fill-0, white)"/>
<path id="Vector_8" d="M13.9728 2.4466C13.5878 1.22036 11.6493 0.168731 7.26218 0.168731H0L3.266 5.80387H7.0836L6.28 4.41889L9.33369 4.42484C13.195 4.43278 14.3279 3.58354 13.9728 2.44858V2.4466ZM9.97459 2.81962C9.83768 3.12122 9.37139 3.26806 8.54794 3.26806C8.54398 3.26806 8.53802 3.26806 8.53405 3.26806H5.61331L4.64105 1.58942H7.85546C8.98844 1.58942 9.73451 1.86522 9.95872 2.36326C10.0302 2.522 10.0361 2.6847 9.97459 2.81962Z" fill="var(--fill-0, white)"/>
<path id="Vector_9" d="M36.2593 0.000131083C31.6242 0.00806789 28.4138 1.30573 28.0903 3.27803C27.8046 5.02016 30.1103 5.96464 33.9041 5.97655C37.6919 5.98845 40.7833 5.04199 41.8786 3.28994C43.1187 1.30772 40.8905 -0.00780573 36.2593 0.000131083ZM38.1403 3.03001C37.7058 3.90702 36.3188 4.37926 34.5668 4.3753C32.7889 4.37133 31.781 3.90702 32.0389 3.02405C32.3127 2.08751 33.7275 1.54582 35.6819 1.54384C37.6106 1.54384 38.6027 2.09545 38.1403 3.02803V3.03001Z" fill="var(--fill-0, white)"/>
<path id="Vector_10" d="M24.7073 4.16293C26.5983 3.85141 27.4217 3.18869 27.5289 2.4089C27.6916 1.23227 26.1994 0.168731 21.7231 0.168731H14.3379L15.826 5.80387H19.2567L18.9254 4.35143H21.0346L23.1239 5.80387H27.6499L24.7053 4.16293H24.7073ZM23.3243 2.74224C23.0307 3.10138 22.2707 3.17876 21.6814 3.17876C21.6774 3.17876 21.6715 3.17876 21.6675 3.17876H18.6575L18.2983 1.60529H21.606C22.7965 1.60529 23.4493 1.88903 23.4493 2.40493C23.4493 2.49025 23.4275 2.61922 23.3263 2.74224H23.3243Z" fill="var(--fill-0, white)"/>
<path id="Vector_11" d="M43.0215 11.1136C44.2755 11.3954 46.1585 10.2445 48.357 6.45072L52 0.168731H45.4879L43.5731 3.47044H45.1744L43.6386 6.10944C41.6961 9.44687 41.8607 10.8517 43.0215 11.1136ZM44.7041 7.46862C44.5116 7.19876 44.6188 6.72057 45.0315 6.01023C45.0335 6.00626 45.0355 6.00229 45.0394 5.99832L46.5058 3.47243H48.4443L46.8312 6.25428C46.2637 7.23447 45.6506 7.74244 45.1069 7.68489C44.9323 7.66704 44.7894 7.58965 44.7041 7.46862Z" fill="var(--fill-0, white)"/>
<path id="Vector_12" d="M33.9616 31.6224C36.2792 27.6084 36.7673 24.1797 35.2236 22.9118C33.8604 21.7907 31.8861 23.3106 29.9734 26.5885C28.0646 29.8604 27.3324 33.0094 28.2967 34.8348C29.39 36.9024 31.6441 35.6345 33.9616 31.6224ZM30.396 31.7295C29.8543 30.9121 30.142 29.4775 31.025 27.9615C31.9199 26.4258 32.8286 25.7869 33.4616 26.4516C34.1362 27.1579 33.8942 28.654 32.914 30.3466C31.9477 32.0153 30.9714 32.5966 30.396 31.7295Z" fill="var(--fill-0, white)"/>
<path id="Vector_13" d="M36.1542 19.5405C35.4756 21.3322 35.6343 22.3759 36.2553 22.8621C37.1919 23.5942 38.8586 22.8363 41.1047 18.9631L44.8073 12.574L39.186 11.0342L37.4657 14.0006L38.8884 14.4411L37.8288 16.2646L35.5271 17.346L33.2572 21.2608L36.1542 19.5365V19.5405ZM38.0749 19.0564C37.9122 18.6218 38.2257 17.9273 38.5213 17.4154C38.5233 17.4115 38.5253 17.4075 38.5273 17.4035L40.0392 14.8002L41.579 15.2764L39.9202 18.1377C39.3229 19.1675 38.7495 19.5901 38.305 19.3322C38.2316 19.2885 38.1304 19.2072 38.0749 19.0564Z" fill="var(--fill-0, white)"/>
<path id="Vector_14" d="M20.9631 31.787C20.096 32.7354 20.1575 34.9399 22.358 38.7337L26.001 45.0156L29.2571 39.3984L27.3225 36.0609L26.5268 37.4519L25.001 34.8089C23.0703 31.4655 21.7687 30.9099 20.9651 31.787H20.9631ZM23.2906 35.0609C23.62 35.0291 23.9811 35.3585 24.3938 36.0689C24.3958 36.0728 24.3978 36.0768 24.4017 36.0808L25.8641 38.6087L24.9018 40.2893L23.2906 37.5074C22.7231 36.5272 22.5862 35.7435 22.9056 35.301C23.0068 35.1601 23.1457 35.0728 23.2926 35.0589L23.2906 35.0609Z" fill="var(--fill-0, white)"/>
<path id="Vector_15" d="M7.66895 13.7328C10.0004 17.7389 12.7346 19.866 14.6018 19.1556C16.2506 18.5286 15.9133 16.0603 14.0204 12.7724C12.1294 9.49056 9.76031 7.29008 7.69673 7.22064C5.35934 7.14127 5.3395 9.72867 7.66895 13.7328ZM9.34759 10.5878C10.3258 10.5243 11.429 11.4867 12.304 13.0046C13.193 14.5443 13.2942 15.6495 12.4033 15.8698C11.4548 16.1039 10.2762 15.1495 9.296 13.459C8.32771 11.7903 8.30985 10.6553 9.34759 10.5878Z" fill="var(--fill-0, white)"/>
<path id="Vector_16" d="M17.0642 21.6399C15.8479 20.1616 14.8617 19.7807 14.1315 20.0783C13.0323 20.5267 12.8597 22.3502 15.1058 26.2253L18.8083 32.6145L22.9374 28.5012L21.2171 25.5348L20.1278 26.5508L19.0722 24.7233L19.2785 22.1875L17.0086 18.2727L17.0642 21.6438V21.6399ZM16.5304 23.5487C16.9888 23.6221 17.4352 24.2411 17.7329 24.7511C17.7348 24.7551 17.7368 24.759 17.7388 24.763L19.2468 27.3683L18.0682 28.4675L16.4094 25.6063C15.8121 24.5765 15.7308 23.8681 16.1772 23.6122C16.2506 23.5685 16.3737 23.5249 16.5324 23.5506L16.5304 23.5487Z" fill="var(--fill-0, white)"/>
</g>
</svg>
