<svg preserveAspectRatio="none" width="100%" height="100%" overflow="visible" style="display: block;" viewBox="0 0 64 31.8929" fill="none" xmlns="http://www.w3.org/2000/svg">
<g id="Group">
<path id="Vector" d="M63.9604 26.7622C64.0132 27.2775 64.0132 28.4994 63.9604 29.0146C63.9255 29.3465 63.7182 29.6495 63.4003 29.7661C63.3076 29.801 63.0096 29.8668 62.9219 29.8668H60.9963V31.6916L60.9455 31.7425H59.6488L59.598 31.6916V26.6735L58.8146 25.9061H63.1282C63.2478 25.9061 63.6165 26.0845 63.7092 26.1771C63.8398 26.3127 63.9454 26.5758 63.9644 26.7592L63.9594 26.7622H63.9604ZM60.9933 27.105V28.6748H62.5979V27.105H60.9933Z" fill="var(--fill-0, #F7F7F7)"/>
<path id="Vector_2" d="M0.000997629 26.7961C0.10166 26.817 0.0598023 26.7452 0.0777421 26.6874C0.264117 26.0765 0.593011 25.9459 1.20894 25.9061C1.7591 25.8712 3.28099 25.8393 3.75839 25.9858C4.0823 26.0845 4.39824 26.4722 4.39824 26.812V28.0578C3.98961 28.005 3.51421 28.1406 3.11754 28.0947C3.06671 28.0897 3.02984 28.0897 3.00093 28.0419V27.428C3.00093 27.3721 3.29295 27.2236 3.27501 27.1379H1.48502L1.43419 27.1888V30.4648L1.48502 30.5156H2.9511L3.00193 30.4648V29.6116C3.02286 29.5767 3.04977 29.5668 3.08665 29.5608C3.29694 29.5239 3.67068 29.5688 3.90689 29.5608C4.04543 29.5558 4.19393 29.492 4.34243 29.5319L4.39824 29.5767V30.8385C4.39824 31.2372 3.99759 31.6249 3.62285 31.7016C3.09462 31.8103 1.78202 31.7813 1.20795 31.7445C0.60198 31.7076 0.246176 31.577 0.0767444 30.9631C0.0607979 30.9043 0.0976723 30.8355 0 30.8545V26.7951L0.000997629 26.7961Z" fill="var(--fill-0, #F7F7F7)"/>
<path id="Vector_3" d="M10.2994 18.3993L11.7147 21.6085L13.128 18.4182L15.208 18.3674C15.2239 18.4262 15.184 18.4361 15.1571 18.471C15.0166 18.6574 14.7904 18.774 14.6628 18.9654V24.2736H13.3512L13.3004 24.2227V20.8271L12.1582 23.4892C12.0705 23.5689 11.3798 23.5131 11.2184 23.5081L10.0602 20.7932V24.2765H8.72971V19.072L8.047 18.4052H10.2964L10.2994 18.4003V18.3993Z" fill="var(--fill-0, #F7F7F7)"/>
<path id="Vector_4" d="M23.6277 31.7803H22.2653V28.3319L21.1231 30.994C21.0643 31.0657 20.3268 31.0229 20.1853 31.0099L19.0272 28.3299V31.7255L18.9763 31.7764H17.6986V26.6037C17.5501 26.3884 17.2122 26.1941 17.0667 26.0057C17.0398 25.9708 17 25.9629 17.0159 25.9021H19.2155L20.6816 29.1462L22.0949 25.921L24.1191 25.8762L24.1589 25.9399L23.6307 26.4343V31.7764L23.6277 31.7813V31.7803Z" fill="var(--fill-0, #F7F7F7)"/>
<path id="Vector_5" d="M52.454 18.3993C52.5786 18.4202 52.6792 18.5189 52.751 18.6145C53.4337 19.5125 53.938 20.7713 54.6078 21.7012L54.6845 21.744V19.2365C54.4931 18.9684 54.1533 18.766 53.952 18.5029C53.925 18.468 53.8852 18.4601 53.9011 18.3993H55.6572C55.7878 18.3993 56.015 18.5906 56.015 18.7232V24.2357H54.7194L52.5706 20.6866V24.1859L52.5198 24.2367H51.258L51.2072 24.1859V19.1677C50.9969 18.9524 50.6899 18.7401 50.5085 18.5039C50.4816 18.469 50.4417 18.4611 50.4577 18.4003H52.453L52.454 18.3993Z" fill="var(--fill-0, #F7F7F7)"/>
<path id="Vector_6" d="M40.6925 25.9091C40.7513 25.922 40.8868 26.0635 40.9287 26.1164L42.7805 29.211L42.8572 29.2538V26.7462C42.6738 26.4542 42.329 26.2818 42.1236 26.0127C42.0967 25.9778 42.0569 25.9699 42.0728 25.9091H43.8977C43.9934 25.9091 44.1867 26.1353 44.1867 26.233V31.7106H42.909L40.7443 28.1964V31.7106H39.3819V26.6765L38.5985 25.9091H40.6915H40.6925Z" fill="var(--fill-0, #F7F7F7)"/>
<path id="Vector_7" d="M34.4614 25.8851C35.1251 25.8293 36.1377 25.8323 36.8045 25.8742C37.4713 25.917 37.9038 26.1323 37.9816 26.8469C37.8938 28.1595 38.0962 29.6146 37.9816 30.9093C37.9287 31.5043 37.557 31.8043 36.9779 31.8501C36.2982 31.9029 35.0285 31.9109 34.3507 31.8501C33.673 31.7893 33.389 31.3717 33.3441 30.708C33.2564 29.4193 33.379 27.9821 33.389 26.6884C33.5215 26.0984 33.9072 25.934 34.4643 25.8891L34.4614 25.8861V25.8851ZM36.9929 27.1359H34.8281L34.7773 27.1868V30.5315C34.7773 30.5744 34.8839 30.6113 34.9288 30.6193C35.2178 30.6591 36.1377 30.6541 36.4318 30.6193C36.5723 30.6033 36.5753 30.5186 36.5862 30.396V27.5615L36.9929 27.1339V27.1369V27.1359Z" fill="var(--fill-0, #F7F7F7)"/>
<path id="Vector_8" d="M46.4302 18.3405C47.089 18.2737 48.2421 18.2817 48.9109 18.3295C49.6334 18.3803 49.9972 18.6594 50.053 19.4059C49.9733 20.6567 50.1537 22.0281 50.053 23.2629C50.0132 23.7513 49.8009 24.132 49.3045 24.2536C48.8082 24.3762 46.9774 24.3523 46.4222 24.3044C45.8222 24.2516 45.4634 23.9058 45.4156 23.2998C45.5083 22.0191 45.296 20.572 45.4206 19.3092C45.4814 18.6903 45.8322 18.4032 46.4322 18.3425L46.4292 18.3395L46.4302 18.3405ZM49.0275 19.5594H46.9634C46.8996 19.5594 46.793 19.7059 46.8089 19.7796C46.8677 20.7683 46.7342 21.8407 46.8089 22.8184C46.8249 23.0178 46.8249 23.0606 47.0292 23.0736C47.398 23.1005 48.0677 23.1105 48.4315 23.0736C48.5461 23.0626 48.6119 23.0546 48.6179 22.9191V20.0497C48.6129 19.959 49.0853 19.6082 49.0245 19.5534L49.0275 19.5584V19.5594Z" fill="var(--fill-0, #F7F7F7)"/>
<path id="Vector_9" d="M18.8547 24.2357V19.2016C18.6504 18.9464 18.3155 18.7551 18.1212 18.5029C18.0943 18.468 18.0544 18.4601 18.0704 18.3993H22.2802C22.3839 18.3993 22.7208 18.49 22.8224 18.5398C23.1892 18.7232 23.2948 19.1298 23.3217 19.5066C23.3905 20.5211 23.3905 22.1128 23.3217 23.1274C23.2928 23.561 23.1513 23.9965 22.7058 24.15C22.645 24.1709 22.3949 24.2347 22.35 24.2347H18.8547V24.2357ZM20.2202 19.6291V22.9929L20.271 23.0437H21.7719C21.7989 23.0437 21.8965 22.9849 21.9264 22.959V19.683L21.8756 19.6321H20.2211V19.6291H20.2202Z" fill="var(--fill-0, #F7F7F7)"/>
<path id="Vector_10" d="M7.0932 28.1276H8.93402V25.9599L8.98485 25.9091H10.0423C10.1171 25.9091 10.3323 26.1243 10.3323 26.1991V31.6956L10.2815 31.7465H8.98485L8.93402 31.6956V29.3575H7.0932V31.6956L7.04237 31.7465H5.74672L5.69589 31.6956V26.6775L4.91252 25.91H6.80317C6.87792 25.91 7.0932 26.1253 7.0932 26.2001V28.1286V28.1276Z" fill="var(--fill-0, #F7F7F7)"/>
<path id="Vector_11" d="M43.1283 20.2431V19.68C43.1283 19.68 43.0834 19.6272 43.0934 19.5953H41.6781L41.6273 19.6461V20.3637C41.6273 20.3986 41.7499 20.4594 41.7898 20.4753C42.4356 20.7275 43.8638 20.7893 44.3342 21.2726C44.4748 21.4191 44.5734 21.6663 44.5944 21.8676C44.6342 22.2603 44.6372 23.1503 44.5944 23.541C44.5515 23.9317 44.2575 24.1869 43.8907 24.2367C42.9559 24.1839 41.9173 24.3214 40.9954 24.2417C40.7243 24.2177 40.4672 24.0932 40.3317 23.849C40.3127 23.8171 40.231 23.6227 40.231 23.6098V22.3291H41.5934V23.0277L41.6443 23.0786H43.1452L43.196 23.0277V22.2095C43.196 22.1746 43.0894 22.1268 43.0525 22.1138C42.3509 21.8397 40.6456 21.7979 40.3357 21.0434C40.1762 20.6577 40.1812 19.3032 40.3596 18.9265C40.4842 18.6604 40.7343 18.5149 41.0134 18.4531C41.5047 18.3464 43.4701 18.3494 43.9326 18.5039C44.6183 18.7351 44.5116 19.2235 44.4768 19.8374L43.1273 20.2471L43.1303 20.2441L43.1283 20.2431Z" fill="var(--fill-0, #F7F7F7)"/>
<path id="Vector_12" d="M48.1405 27.7529V27.1898C48.1405 27.1768 48.1006 27.113 48.0817 27.1021C48.0049 27.0542 47.0192 27.0542 46.8598 27.0672C46.772 27.0751 46.6604 27.0781 46.6395 27.1898C46.6265 27.2615 46.6265 27.8167 46.6445 27.8675C46.6634 27.9263 46.78 27.9662 46.8358 27.9821C47.4657 28.1864 48.9527 28.3379 49.3673 28.7954C49.4341 28.8671 49.5079 29.0077 49.5398 29.1013C49.6484 29.4203 49.6434 30.6452 49.6065 31.0139C49.5717 31.3518 49.3275 31.6757 48.9767 31.7156C48.0099 31.8192 46.8598 31.6358 45.8741 31.7156C45.6269 31.7235 45.2442 31.3458 45.2442 31.1176V29.803H46.5558L46.6066 29.8538V30.5525H48.2082V29.7153C48.2082 29.6804 48.0856 29.6196 48.0458 29.6037C47.39 29.3485 45.8093 29.2718 45.4186 28.6847C45.1924 28.3469 45.2113 27.402 45.2432 26.9844C45.2801 26.5041 45.4395 26.1154 45.9309 25.9669C46.3266 25.8473 48.0528 25.8682 48.5311 25.9081C49.458 25.9848 49.5986 26.4951 49.4869 27.3422L48.1375 27.7489V27.7539L48.1405 27.7529Z" fill="var(--fill-0, #F7F7F7)"/>
<path id="Vector_13" d="M27.1728 22.2723C27.1678 22.2513 27.109 22.1686 27.0881 22.1527C26.525 21.9454 25.9061 21.8656 25.324 21.7012C24.9284 21.5866 24.4529 21.457 24.2825 21.0374C24.1659 20.7504 24.1789 19.7168 24.2058 19.372C24.2456 18.8647 24.4848 18.5508 24.9842 18.4451C25.4436 18.3464 27.2605 18.3494 27.72 18.4501C28.5562 18.6335 28.4475 19.1487 28.4316 19.8663L27.0692 20.2441V19.6461L27.0183 19.5953H25.6559C25.5204 19.6989 25.5413 20.3497 25.64 20.4295C26.3277 20.6686 27.13 20.7294 27.8047 20.9926C28.2133 21.152 28.4904 21.3623 28.5382 21.8298C28.5701 22.1537 28.5831 23.4394 28.5063 23.7084C28.4296 23.9765 28.1316 24.1998 27.8715 24.2317C26.9257 24.1759 25.8742 24.3164 24.9423 24.2367C24.6204 24.2098 24.1769 23.9177 24.1769 23.5699V22.3241H25.5393V23.0227L25.5901 23.0736H27.125L27.1758 23.0227C27.1439 22.8045 27.2187 22.4726 27.1758 22.2713L27.1728 22.2743V22.2723Z" fill="var(--fill-0, #F7F7F7)"/>
<path id="Vector_14" d="M52.3693 28.1276H54.244V25.9091H55.3513C55.3961 25.9091 55.6064 26.1193 55.6064 26.1642V31.6926L55.5556 31.7435H54.2938L54.243 31.6926V29.4053L54.1922 29.3545H52.4211L52.3703 29.4053V31.6926L52.3194 31.7435H51.0068V26.7094L50.2743 26.0107L50.2235 25.9071H52.1151C52.16 25.9071 52.3703 26.1174 52.3703 26.1622V28.1256L52.3673 28.1286L52.3693 28.1276Z" fill="var(--fill-0, #F7F7F7)"/>
<path id="Vector_15" d="M16.7079 31.7455H15.207L14.8831 30.5505L13.7728 30.4997L13.3642 29.3894L12.6655 31.7455H11.2502L12.7512 26.7752L12.7193 26.6745L11.914 25.944L11.9489 25.8752H14.8811L16.7059 31.7465H16.7089L16.7079 31.7455ZM14.5591 29.3226L13.9801 27.1041L13.3662 29.3226H14.5591Z" fill="var(--fill-0, #F7F7F7)"/>
<path id="Vector_16" d="M38.0154 18.3993L39.7556 24.2357H38.3055L37.9447 23.0108L36.8264 23.0028C36.7357 22.7028 36.6271 22.3998 36.5075 22.1098C36.4786 22.0351 36.4547 21.9185 36.3799 21.8786L35.766 24.2347H34.3348L35.8278 19.2614L34.9836 18.3983H38.0164L38.0154 18.3993ZM36.4138 21.8128H37.6068L37.0118 19.6291L36.4138 21.8128Z" fill="var(--fill-0, #F7F7F7)"/>
<path id="Vector_17" d="M29.0665 25.9091C29.4173 25.9519 29.7492 26.1672 29.8688 26.5041C30.0233 26.9346 30.0203 28.7116 29.9007 29.1661C29.805 29.5279 29.5478 29.7402 29.1891 29.8199C29.1412 29.8309 28.9259 29.8678 28.897 29.8678H26.9715V31.6926L26.9207 31.7435H25.624L25.5732 31.6926V26.7084L24.8397 26.0097L24.7888 25.9061H29.0675L29.0645 25.9091H29.0665ZM28.5721 27.105H26.9675V28.6748H28.5721V27.105Z" fill="var(--fill-0, #F7F7F7)"/>
<path id="Vector_18" d="M31.2661 19.6291V20.6517H33.2953C33.2953 20.6517 33.3561 20.7025 33.3401 20.7284L32.9175 21.8447H31.2631V23.0397H33.8524C33.7677 23.4543 33.6082 23.8868 33.4278 24.2696H29.1332L29.0984 24.2008L29.8658 23.4334V19.3371L29.8339 19.2016L29.0136 18.4182C29.0136 18.4182 29.0934 18.3674 29.0984 18.3674H33.8026C33.8395 18.3674 33.8534 18.4361 33.8474 18.479C33.8345 18.5856 33.5524 19.4218 33.4946 19.5285C33.4757 19.5653 33.4627 19.6052 33.4258 19.6291H31.2661Z" fill="var(--fill-0, #F7F7F7)"/>
<path id="Vector_19" d="M16.0252 24.2357V18.4491L16.0761 18.3983H17.0637C17.2152 18.3983 17.4225 18.6425 17.4225 18.792V24.1849L17.3717 24.2357H16.0252Z" fill="var(--fill-0, #F7F7F7)"/>
<path id="Vector_20" d="M32.2548 31.7455H30.9422L30.8913 31.6946V25.9091H31.9986C32.0435 25.9091 32.2538 26.1193 32.2538 26.1642V31.7455H32.2548Z" fill="var(--fill-0, #F7F7F7)"/>
<path id="Vector_21" d="M56.7645 31.7455V25.9091H57.8379C57.9286 25.9091 58.1279 26.1084 58.1279 26.1991V31.6956L58.0771 31.7465H56.7645V31.7455Z" fill="var(--fill-0, #F7F7F7)"/>
<path id="Vector_22" d="M38.3633 4.9753L40.0925 3.9926V6.60185C40.0925 6.80616 39.8901 7.12011 39.7397 7.25266L38.3643 8.06793V8.70778L39.629 7.98221V9.45627C39.629 9.49912 39.5732 9.66656 39.5523 9.7144C39.3958 10.0971 39.053 10.1898 38.739 10.4051V11.7386L38.6991 11.8134L35.2677 13.7927C35.2407 13.9253 35.3125 14.2332 35.2148 14.3289L32.0245 16.1488L31.9209 16.1199L28.8163 14.3289C28.7156 14.2332 28.7874 13.9283 28.7635 13.7927L25.332 11.8134L25.2951 11.7386V10.4051C24.9842 10.1848 24.6393 10.0941 24.4818 9.7144C24.4609 9.66656 24.4051 9.49613 24.4051 9.45627V7.98221L25.6699 8.70778V8.06793L24.2945 7.25266C24.146 7.12011 23.9417 6.80616 23.9417 6.60185V3.9926L25.6709 4.9753V4.16801L25.8433 4.04343L28.7515 2.36706C28.8263 2.27636 28.6927 1.90461 28.8392 1.82288L32.0106 0L32.1431 0.0508289L35.2108 1.82787C35.3354 1.92354 35.2158 2.28234 35.2856 2.36407L38.1938 4.04044L38.3663 4.16502V4.9753H38.3633ZM37.7493 9.07455L37.7414 4.51086C37.7204 4.46003 37.4095 4.2906 37.3377 4.24775C35.5956 3.2172 33.8185 2.24247 32.0704 1.21692C31.9558 1.18203 31.8421 1.2807 31.7435 1.33651C29.9216 2.33815 28.1575 3.44544 26.3436 4.45804L26.2828 4.52681L26.2778 9.06657C26.4692 9.17023 26.6605 9.28684 26.7024 9.51806C26.7552 10.2516 26.6356 11.0748 26.7024 11.8004C26.7104 11.8722 26.7213 11.933 26.7901 11.9728L31.9777 14.9538L32.0365 14.9588L37.2799 11.9379C37.3168 11.8951 37.3228 11.8502 37.3248 11.7994C37.3915 11.0768 37.2719 10.2506 37.3248 9.51706C37.3696 9.29381 37.551 9.16325 37.7473 9.07654L37.7503 9.07355L37.7493 9.07455Z" fill="var(--fill-0, #F7F7F7)"/>
<path id="Vector_23" d="M32.2009 5.88326C32.2408 5.91017 32.2598 5.97595 32.2777 6.0188C32.5667 6.6746 32.8278 7.34435 33.1219 7.99816L34.7713 9.65061C35.459 8.53436 35.3584 7.04934 34.556 6.02478L35.456 5.10587C35.9763 5.70087 36.3401 6.48723 36.4626 7.27359C37.1663 11.7605 31.5432 14.3618 28.603 10.9532C27.1638 9.28484 27.124 6.78224 28.5661 5.10885L29.4661 6.02777C28.6638 7.05632 28.5631 8.54134 29.2508 9.65361L30.9003 8.00115L31.8222 5.90518V8.73469L30.0402 10.5197C30.0322 10.5705 30.3641 10.7699 30.4249 10.8018C31.5402 11.4316 32.9773 11.3489 33.976 10.5337L32.194 8.73469V5.88724L32.199 5.88425L32.2009 5.88326Z" fill="var(--fill-0, #F7F7F7)"/>
<path id="Vector_24" d="M31.8451 3.49527L32.1372 3.49029C33.2395 3.53514 34.3178 3.96569 35.1152 4.72515C35.1441 4.75405 35.1979 4.78893 35.1869 4.83378L34.3049 5.71582C34.1135 5.58327 33.9491 5.41583 33.7497 5.29125C32.6983 4.62149 31.3408 4.6195 30.2894 5.28327C30.085 5.41384 29.9176 5.57828 29.7233 5.71682L28.8392 4.81883C28.8392 4.768 29.2957 4.40422 29.3734 4.34841C30.093 3.83015 30.9561 3.53514 31.8431 3.49826L31.8461 3.49527H31.8451Z" fill="var(--fill-0, #F7F7F7)"/>
<path id="Vector_25" d="M35.8397 11.7526C35.8397 11.9519 35.6803 12.1144 35.479 12.1144C35.2776 12.1144 35.1182 11.9549 35.1182 11.7526C35.1182 11.5502 35.2776 11.3908 35.479 11.3908C35.6803 11.3908 35.8397 11.5502 35.8397 11.7526ZM35.7809 11.7526C35.7809 11.5851 35.6454 11.4466 35.475 11.4466C35.3045 11.4466 35.17 11.5821 35.17 11.7526C35.17 11.923 35.3055 12.0585 35.475 12.0585C35.6444 12.0585 35.7809 11.923 35.7809 11.7526Z" fill="var(--fill-0, #F7F7F7)"/>
<path id="Vector_26" d="M35.3643 11.9329V11.5742H35.4839C35.5158 11.5742 35.5397 11.5742 35.5557 11.5851C35.5716 11.5961 35.5876 11.604 35.5985 11.62C35.6095 11.6359 35.6145 11.6549 35.6145 11.6728C35.6145 11.6908 35.6065 11.7177 35.5876 11.7366C35.5716 11.7555 35.5447 11.7655 35.5108 11.7715C35.5238 11.7765 35.5348 11.7844 35.5397 11.7904C35.5527 11.8034 35.5667 11.8193 35.5796 11.8383L35.6404 11.9369H35.5816L35.5368 11.8622C35.5238 11.8413 35.5098 11.8223 35.5019 11.8143C35.4939 11.8064 35.4829 11.7934 35.478 11.7904L35.457 11.7795H35.4172V11.9389H35.3723L35.3673 11.9339H35.3643V11.9329ZM35.4152 11.7336H35.474C35.4949 11.7336 35.5138 11.7336 35.5248 11.7256C35.5358 11.7177 35.5457 11.7127 35.5537 11.7047C35.5617 11.6967 35.5647 11.6838 35.5647 11.6698C35.5647 11.6509 35.5597 11.6379 35.5457 11.627C35.5328 11.616 35.5138 11.611 35.4869 11.611H35.4152V11.7336Z" fill="var(--fill-0, #F7F7F7)"/>
</g>
</svg>
