<svg preserveAspectRatio="none" width="100%" height="100%" overflow="visible" style="display: block;" viewBox="0 0 64 24.9157" fill="none" xmlns="http://www.w3.org/2000/svg">
<g id="Group">
<path id="Vector" d="M16.6101 0.00576566C19.9905 0.00576566 22.7232 2.73839 22.7232 6.1222C22.7232 9.50601 19.9905 12.242 16.6101 12.242C13.2296 12.242 10.4936 9.50269 10.4903 6.12552C10.4903 2.74836 13.2263 0.00908618 16.6067 0.00908618M14.4273 6.14878C14.4505 7.35811 15.4439 8.33156 16.63 8.3083C17.846 8.28504 18.8161 7.28834 18.7928 6.08898C18.7696 4.88629 17.7696 3.91949 16.5768 3.93942C15.3742 3.95935 14.4007 4.95938 14.424 6.1521" fill="var(--fill-0, #F7F7F7)"/>
<path id="Vector_2" d="M7.69123 7.37974C8.68793 8.92629 9.67134 10.4596 10.6714 12.0127C10.6016 12.0161 10.5584 12.0227 10.5119 12.0227H6.46529C6.34569 12.0227 6.28256 11.9828 6.22275 11.8832C5.50347 10.6938 4.77587 9.50936 4.04994 8.32328C4.01672 8.27013 3.98017 8.21697 3.91372 8.17046V12.0111H0.00332559V0.228394H0.169443C2.14292 0.228394 4.11306 0.225072 6.08654 0.228394C7.2261 0.228394 8.22281 0.602155 9.02681 1.42443C10.4637 2.89125 10.1963 5.23516 9.18628 6.45446C8.86235 6.84484 8.46699 7.13056 7.98359 7.29502C7.93708 7.31163 7.89057 7.3216 7.84406 7.33489C7.80087 7.34818 7.75436 7.36146 7.68791 7.37808M3.92535 3.26502V5.89798C4.24928 5.89798 4.56158 5.91126 4.87555 5.89798C5.52839 5.86475 6.04168 5.3448 6.09484 4.67867C6.14135 4.06238 5.70447 3.44276 5.08817 3.33146C4.71109 3.26502 4.32071 3.28495 3.92868 3.26834" fill="var(--fill-0, #F7F7F7)"/>
<path id="Vector_3" d="M37.1903 17.2454C37.074 17.1391 36.9611 17.0394 36.8465 16.9414C35.7368 15.9912 33.25 16.1241 32.6238 18.2222C32.2865 19.3518 32.6969 20.6026 33.6138 21.2256C34.3032 21.6957 35.0507 21.7621 35.8265 21.4615C36.2468 21.2987 36.5906 20.9316 36.7102 20.5511H34.9261V17.7105H40.5625C40.5725 17.7238 40.5824 17.7338 40.5824 17.7438C40.5824 18.8401 40.6755 19.9465 40.3399 21.0213C39.6937 23.0911 38.31 24.3785 36.1903 24.7805C33.8896 25.2207 31.8762 24.5911 30.323 22.8137C28.7898 21.0578 28.3828 18.9996 29.1436 16.7969C29.9044 14.5975 31.4875 13.2104 33.7833 12.7935C36.0258 12.3865 38.0525 12.9363 39.7469 14.5294C39.7901 14.5693 39.8399 14.6058 39.9063 14.659C38.9861 15.5327 38.089 16.3816 37.1903 17.2388" fill="var(--fill-0, #F7F7F7)"/>
<path id="Vector_4" d="M41.3516 12.9065H45.2885V19.6226C45.2885 20.3053 45.7321 20.8552 46.3583 20.9598C47.169 21.0927 47.8617 20.5296 47.9082 19.704C47.9115 19.6309 47.9082 19.5578 47.9082 19.488V12.9148H51.8352V19.7007C51.8352 22.3768 49.782 24.6343 47.1192 24.8902C44.2619 25.1676 41.7253 23.1376 41.3898 20.297C41.3665 20.1043 41.3532 19.91 41.3532 19.7173V12.9098" fill="var(--fill-0, #F7F7F7)"/>
<path id="Vector_5" d="M43.1041 12.026C41.6506 12.026 40.2436 12.026 38.8349 12.0194C38.7718 12.0194 38.692 11.9463 38.6555 11.8832C37.9262 10.7004 37.202 9.51267 36.4793 8.32659C36.4461 8.27343 36.4096 8.22027 36.3464 8.1206V12.0144H32.4194V0.238344H36.3365V4.07897C36.3464 4.0823 36.3597 4.08562 36.3697 4.08894C36.4062 4.03246 36.4461 3.97598 36.4827 3.9195C37.2053 2.74007 37.9262 1.55565 38.6455 0.376219C38.6987 0.289838 38.7419 0.226715 38.8648 0.226715C40.2386 0.233359 41.6107 0.230035 42.9845 0.230035C43.0144 0.230035 43.041 0.233357 43.1008 0.240002C41.7835 2.21347 40.4844 4.16702 39.1771 6.13052C40.4844 8.09071 41.7835 10.0442 43.1074 12.031" fill="var(--fill-0, #F7F7F7)"/>
<path id="Vector_6" d="M50.9614 4.58896V7.65217H47.4846V8.95951H51.8269V12.0127H43.5476V0.236691H51.8302V3.27331H47.4913V4.58896H50.9614Z" fill="var(--fill-0, #F7F7F7)"/>
<path id="Vector_7" d="M29.6702 24.6892H25.7465C25.607 24.116 25.4691 23.5429 25.3262 22.9599C25.2731 22.9599 25.2199 22.9532 25.1634 22.9532C24.2432 22.9532 23.3229 22.9532 22.4042 22.9499C22.268 22.9499 22.2182 22.9898 22.1916 23.1227C22.0753 23.6459 21.9458 24.1692 21.8178 24.6925H17.8875C18.027 24.2622 18.1682 23.8453 18.3045 23.4283C19.4507 19.9847 20.6019 16.5411 21.7414 13.0975C21.7946 12.9347 21.8677 12.8915 22.0321 12.8948C23.2116 12.9015 24.3927 12.9015 25.5721 12.8948C25.695 12.8948 25.7615 12.9214 25.8047 13.051C27.0721 16.8684 28.3446 20.6807 29.6154 24.4981C29.6353 24.5546 29.6486 24.6111 29.6685 24.6908M24.5887 19.8767C24.3245 18.7804 24.0654 17.6973 23.8046 16.6175H23.7614C23.5006 17.6973 23.2415 18.7804 22.9773 19.8734H24.587V19.8767H24.5887Z" fill="var(--fill-0, #F7F7F7)"/>
<path id="Vector_8" d="M13.0867 15.9497V17.262H16.5669V20.3269H13.0867V21.6359H17.444V24.6825H9.16137V12.9098H17.4406V15.9497H13.0867Z" fill="var(--fill-0, #F7F7F7)"/>
<path id="Vector_9" d="M56.6543 20.3302V21.6409H61.0049V24.6908H52.7223V12.9181H61.0049V15.9547H56.651V17.2653H60.1278C60.1311 17.3451 60.1378 17.4016 60.1378 17.4614C60.1378 18.3584 60.1378 19.2521 60.1411 20.1475C60.1411 20.297 60.1012 20.3402 59.9484 20.3402C58.9251 20.3335 57.9051 20.3402 56.8819 20.3402H56.6493" fill="var(--fill-0, #F7F7F7)"/>
<path id="Vector_10" d="M31.5108 4.77002C30.951 4.24343 30.2848 4.0308 29.5606 3.9494C28.4442 3.82648 27.3711 4.63546 27.1934 5.74347C27.0073 6.90961 27.7266 8.02758 28.8562 8.24685C29.8131 8.43291 30.6735 8.16712 31.4261 7.55082C31.4493 7.53421 31.4692 7.51428 31.5124 7.47108C31.5191 7.55414 31.5257 7.61063 31.5257 7.66711V11.8034C31.5257 11.9396 31.4958 12.0061 31.3496 12.0327C29.7765 12.3433 28.23 12.3666 26.7366 11.6589C24.4591 10.5825 23.0604 8.20533 23.2398 5.6953C23.4458 2.78824 25.6635 0.429378 28.5572 0.0556145C29.5008 -0.0673122 30.441 0.0257153 31.3712 0.218411C31.4709 0.238345 31.5307 0.264922 31.5307 0.387849C31.5274 1.82144 31.5307 3.25503 31.5274 4.68862C31.5274 4.70523 31.5207 4.72517 31.5108 4.76836" fill="var(--fill-0, #F7F7F7)"/>
<path id="Vector_11" d="M61.0082 0.240017V3.27664H58.8371V12.0127H54.9017V3.28993H52.7273V0.240017H61.0082Z" fill="var(--fill-0, #F7F7F7)"/>
<path id="Vector_12" d="M3.91041 21.6359H8.26433V24.6858H0V12.9098H3.91041V21.6359Z" fill="var(--fill-0, #F7F7F7)"/>
<path id="Vector_13" d="M61.6046 23.4898C61.6046 22.8203 62.1312 22.297 62.8006 22.297C63.4701 22.297 64.0033 22.8303 64 23.5064C63.9967 24.1658 63.4568 24.6958 62.7906 24.6924C62.1278 24.6924 61.6012 24.1559 61.6012 23.4864M63.7674 23.5163C63.7807 22.9831 63.3538 22.5396 62.8172 22.5296C62.294 22.5196 61.8571 22.9432 61.8438 23.4765C61.8305 24.0097 62.2574 24.4532 62.794 24.4632C63.3206 24.4698 63.7541 24.0496 63.7674 23.5197" fill="var(--fill-0, #F7F7F7)"/>
<path id="Vector_14" d="M62.5215 24.1326H62.2724V22.8834C62.5215 22.8834 62.7691 22.8735 63.0116 22.8868C63.1578 22.8934 63.2475 22.9964 63.279 23.1442C63.3106 23.2921 63.2724 23.4217 63.1461 23.5114C63.1029 23.5413 63.0498 23.5612 63.0166 23.5811C63.1295 23.7539 63.2425 23.9283 63.3571 24.1077C63.1113 24.1908 63.0664 24.1709 62.9601 23.9715C62.8671 23.8021 62.8006 23.5911 62.5232 23.6276V24.1343L62.5215 24.1326ZM62.5249 23.4167C62.6511 23.41 62.7707 23.4167 62.8853 23.3868C62.9385 23.3735 63.0049 23.2938 63.0083 23.2406C63.0083 23.1908 62.9451 23.1044 62.892 23.0911C62.7757 23.0612 62.6528 23.0678 62.5249 23.0612V23.4183V23.4167Z" fill="var(--fill-0, #F7F7F7)"/>
</g>
</svg>
