<svg preserveAspectRatio="none" width="100%" height="100%" overflow="visible" style="display: block;" viewBox="0 0 64 27.1392" fill="none" xmlns="http://www.w3.org/2000/svg">
<g id="Group">
<path id="Vector" d="M48.2259 10.7489H48.3766V11.1186H48.445V10.7489H48.5819V10.6941H48.2259V10.7489Z" fill="var(--fill-0, #F7F7F7)"/>
<path id="Vector_2" d="M49.0338 10.6941L48.9243 11.0501H48.8969L48.7873 10.6941H48.6641V11.1186H48.7326V10.7626H48.7463L48.8695 11.1186H48.9516L49.0749 10.7626H49.0886V11.1186H49.157V10.6941H49.0338Z" fill="var(--fill-0, #F7F7F7)"/>
<g id="Group_2">
<path id="Vector_3" d="M41.0373 3.06717V2.97132H41.2153V3.05347H41.0373V3.06717ZM41.229 3.10825C41.229 3.10825 41.229 3.10825 41.2153 3.10825H41.2426C41.2563 3.10825 41.27 3.10825 41.2837 3.09455C41.2837 3.09455 41.2837 3.06717 41.2837 3.05347V2.98501C41.2837 2.97132 41.2837 2.95762 41.27 2.94393C41.27 2.94393 41.2426 2.93024 41.229 2.93024H40.9688V3.25887H41.0373V3.12194H41.1605L41.229 3.25887H41.2974L41.2426 3.14932C41.2426 3.14932 41.2426 3.13563 41.229 3.12194V3.10825ZM41.1331 3.3821C40.9688 3.3821 40.8319 3.24517 40.8319 3.08086C40.8319 2.91655 40.9688 2.77962 41.1331 2.77962C41.2974 2.77962 41.4343 2.91655 41.4343 3.08086C41.4343 3.24517 41.2974 3.3821 41.1331 3.3821ZM41.1331 2.72485C40.9414 2.72485 40.7771 2.88916 40.7771 3.08086C40.7771 3.27256 40.9414 3.43687 41.1331 3.43687C41.3248 3.43687 41.4891 3.27256 41.4891 3.08086C41.4891 2.88916 41.3248 2.72485 41.1331 2.72485Z" fill="var(--fill-0, #F7F7F7)"/>
<path id="Vector_4" fill-rule="evenodd" clip-rule="evenodd" d="M37.2307 3.38211H38.0796V0.698331H38.5726V0H36.7377V0.698331H37.2307V3.38211ZM31.1237 1.65683H31.5345V1.31451H31.1237V1.01326H31.5892V0.670946H30.754V2.13607H31.1374V1.65683H31.1237ZM29.9598 0.985879H30.1926V1.82114H29.9598V0.985879ZM29.7133 2.12238C29.7133 2.12238 29.7407 2.13607 29.7544 2.13607H30.398C30.4117 2.13607 30.4254 2.13607 30.4391 2.12238C30.4801 2.0813 30.5075 2.04022 30.5623 1.97176C30.5623 1.97176 30.5623 1.94437 30.5623 1.93068V0.876337C30.5623 0.862644 30.5623 0.848952 30.5623 0.835259C30.5075 0.766795 30.4801 0.725717 30.4391 0.684638C30.4391 0.684638 30.4117 0.670946 30.398 0.670946H29.7544C29.7407 0.670946 29.727 0.670946 29.7133 0.684638C29.6723 0.725717 29.6449 0.766795 29.5901 0.835259C29.5901 0.835259 29.5901 0.862644 29.5901 0.876337V1.93068C29.5901 1.94437 29.5901 1.95807 29.5901 1.97176C29.6449 2.04022 29.6723 2.0813 29.7133 2.12238ZM39.3257 2.23192V3.38211H40.2431V2.23192L40.8045 1.56098C40.8182 1.53359 40.8319 1.5062 40.8319 1.47882V0H40.0377V1.25973L39.8323 1.5062H39.7501L39.5447 1.25973V0H38.7506V1.47882C38.7506 1.5062 38.7506 1.53359 38.7779 1.56098L39.3393 2.23192H39.3257ZM33.3145 2.82071H32.8216V0.561404H33.3145V2.82071ZM33.7938 3.34104C33.8759 3.24519 34.0266 3.09457 34.1361 2.94395C34.1498 2.91656 34.1635 2.88917 34.1635 2.86179V0.534018C34.1635 0.506632 34.1635 0.465554 34.1361 0.451861C34.0129 0.301241 33.8759 0.136928 33.7938 0.0547711C33.7664 0.0273855 33.739 0.0136928 33.6979 0.0136928H31.9726V3.39581H33.6979C33.739 3.39581 33.7664 3.39581 33.7938 3.35473V3.34104ZM34.7249 3.34104C34.7523 3.36842 34.7797 3.38211 34.8207 3.38211H36.0805C36.1216 3.38211 36.1489 3.38211 36.1763 3.34104C36.2585 3.24519 36.4091 3.09457 36.5186 2.94395C36.5323 2.91656 36.546 2.88917 36.546 2.86179V0H35.6971V2.82071H35.2041V0H34.3552V2.86179C34.3552 2.88917 34.3552 2.93025 34.3826 2.94395C34.4921 3.09457 34.6427 3.25888 34.7249 3.34104ZM24.9346 0.561404H25.4275V1.82114H24.9346V0.561404ZM24.9346 2.38254H25.4275V3.38211H26.2764V0.534018C26.2764 0.506632 26.2764 0.465554 26.2491 0.451861C26.1258 0.301241 25.9889 0.136928 25.9067 0.0547711C25.8794 0.0273855 25.852 0.0136928 25.8109 0.0136928H24.5512C24.5101 0.0136928 24.4827 0.0136928 24.4553 0.0547711C24.3732 0.15062 24.2225 0.301241 24.113 0.451861C24.0993 0.479247 24.0856 0.506632 24.0856 0.534018V3.39581H24.9346V2.39623V2.38254ZM22.0728 3.34104C22.1002 3.36842 22.1275 3.38211 22.1686 3.38211H23.4284C23.4694 3.38211 23.4968 3.38211 23.5242 3.34104C23.6064 3.24519 23.757 3.09457 23.8665 2.94395C23.8802 2.91656 23.8939 2.88917 23.8939 2.86179V1.93068H23.045V2.8344H22.552V0.561404H23.045V1.46513H23.8939V0.534018C23.8939 0.506632 23.8939 0.465554 23.8665 0.451861C23.7433 0.301241 23.6064 0.136928 23.5242 0.0547711C23.4968 0.0273855 23.4694 0.0136928 23.4284 0.0136928H22.1686C22.1275 0.0136928 22.1002 0.0136928 22.0728 0.0547711C21.9906 0.15062 21.84 0.301241 21.7305 0.451861C21.7168 0.479247 21.7031 0.506632 21.7031 0.534018V2.86179C21.7031 2.88917 21.7031 2.93025 21.7305 2.94395C21.8537 3.09457 21.9906 3.25888 22.0728 3.34104ZM29.7955 2.75225H29.1382V0H28.2071V3.38211H29.7955V2.73855V2.75225ZM28.0565 2.75225H27.3993V0H26.4681V3.38211H28.0565V2.73855V2.75225Z" fill="var(--fill-0, #F7F7F7)"/>
<path id="Vector_5" d="M28.7275 7.33931C28.7685 7.33931 28.7822 7.33931 28.7959 7.31193C28.8096 7.29823 28.8233 7.27085 28.8233 7.24346V5.90157C28.8233 5.86049 28.8233 5.8468 28.7959 5.81941C28.7959 5.80572 28.7548 5.79203 28.7275 5.79203H27.8374V7.32562H28.7275V7.33931ZM26.2354 4.43644H29.2478C29.6312 4.43644 29.9324 4.5186 30.1241 4.69661C30.3295 4.87461 30.4254 5.12108 30.4254 5.43602V7.43516C30.4254 7.61317 30.398 7.77748 30.3295 7.90071C30.261 8.02395 30.1652 8.1198 30.0283 8.18826C29.8913 8.25673 29.7133 8.28411 29.4943 8.28411H29.4532V8.54427C29.5627 8.54427 29.6449 8.57166 29.6996 8.61274C29.7544 8.64012 29.8092 8.69489 29.8503 8.74967C29.8913 8.81813 29.9324 8.90029 29.9735 9.03721L30.6308 11.1733H28.9328L28.2756 8.59904H27.8237V11.1733H26.2217V4.43644H26.2354Z" fill="var(--fill-0, #F7F7F7)"/>
<path id="Vector_6" d="M37.4361 9.79034C37.4771 9.79034 37.4908 9.79034 37.5045 9.76296C37.5045 9.74927 37.5319 9.72188 37.5319 9.69449V5.92898C37.5319 5.9016 37.5319 5.87421 37.5045 5.86052C37.5045 5.84683 37.4634 5.83313 37.4361 5.83313H36.6282C36.6008 5.83313 36.5734 5.83313 36.5597 5.86052C36.5597 5.87421 36.5323 5.9016 36.5323 5.92898V9.69449C36.5323 9.72188 36.5323 9.74927 36.5597 9.76296C36.5734 9.76296 36.6008 9.79034 36.6282 9.79034H37.4361ZM36.0531 11.187C35.6971 11.187 35.4095 11.0912 35.2178 10.8995C35.0261 10.6941 34.9303 10.4339 34.9303 10.0916V5.55928C34.9303 5.21696 35.0261 4.9431 35.2178 4.7514C35.4232 4.55971 35.6971 4.46386 36.0531 4.46386H37.9975C38.3672 4.46386 38.641 4.55971 38.8327 4.7514C39.0244 4.9431 39.1203 5.21696 39.1203 5.55928V10.0916C39.1203 10.4339 39.0244 10.7078 38.8327 10.8995C38.641 11.0912 38.3535 11.187 37.9975 11.187H36.0531Z" fill="var(--fill-0, #F7F7F7)"/>
<path id="Vector_7" d="M39.5037 4.45015H41.7493L42.3791 8.72229H42.5982V4.45015H44.0086V11.1733H41.763L41.1331 6.90116H40.914V11.1733H39.5037V4.45015Z" fill="var(--fill-0, #F7F7F7)"/>
<path id="Vector_8" d="M44.392 4.45015H47.9247V5.83312H45.9803V7.10655H47.8563V8.48952H45.9803V9.79033H47.9247V11.1733H44.392V4.45015Z" fill="var(--fill-0, #F7F7F7)"/>
<path id="Vector_9" d="M20.2379 4.45015L19.6491 8.7086H19.5533L19.1699 4.45015H17.5405L17.1571 8.7086H17.0612L16.4724 4.45015H14.8704L16.0069 11.1733H17.9376L18.2936 6.90116H18.4168L18.7865 11.1733H20.7035L21.84 4.45015H20.2379Z" fill="var(--fill-0, #F7F7F7)"/>
<path id="Vector_10" d="M32.5751 9.74925L34.588 5.65511V4.45015H30.7814V5.8742H32.7394L30.6855 10.0779L31.0141 11.1733H34.6017V9.74925H32.5751Z" fill="var(--fill-0, #F7F7F7)"/>
<path id="Vector_11" d="M23.1682 8.64012L23.4557 5.87418H23.6748L23.9624 8.64012H23.1682ZM24.2225 11.1733H25.8657V9.96832L24.9209 4.43644H22.2645L21.3334 9.96832V11.1733H22.908L23.0313 9.96832H24.0993L24.2225 11.1733Z" fill="var(--fill-0, #F7F7F7)"/>
</g>
<path id="Vector_12" d="M0 13.3094H5.08002C5.47711 13.3094 5.77835 13.4053 5.98374 13.597C6.18913 13.7887 6.28498 14.0625 6.28498 14.4048V16.0754C6.28498 16.2807 6.2439 16.4588 6.17544 16.5957C6.10697 16.7326 5.98374 16.8422 5.83312 16.9106C5.6825 16.9791 5.4908 17.0202 5.24433 17.0202H4.95678V17.294C5.06632 17.294 5.16217 17.3214 5.23064 17.3488C5.2991 17.3762 5.35387 17.4172 5.40864 17.4857C5.46341 17.5405 5.51819 17.6363 5.55926 17.7459L6.54514 19.7176H4.06675L3.17672 17.5268H2.23192V19.7176H0V13.3231V13.3094ZM4.02567 16.0754C4.03937 16.0617 4.05306 16.0343 4.05306 16.0069V14.9115C4.05306 14.8841 4.05306 14.8567 4.02567 14.843C3.99829 14.8293 3.9846 14.8156 3.95721 14.8156H2.24561V16.1027H3.95721C3.9846 16.1027 4.01198 16.1027 4.02567 16.0754Z" fill="var(--fill-0, #F7F7F7)"/>
<path id="Vector_13" d="M6.70946 13.3094H12.1318V14.8019H8.94138V15.7604H12.0223V17.2392H8.94138V18.2114H12.1318V19.7039H6.70946V13.3094Z" fill="var(--fill-0, #F7F7F7)"/>
<path id="Vector_14" d="M12.7343 19.4438C12.5289 19.2658 12.433 19.0056 12.433 18.6907V17.4994H14.3226V18.1156C14.3226 18.1704 14.35 18.1977 14.4048 18.1977H16.5546C16.5819 18.1977 16.6093 18.1977 16.623 18.1704C16.6367 18.143 16.6367 18.1293 16.6367 18.1019V17.7185C16.6367 17.6911 16.6367 17.65 16.623 17.6363C16.6093 17.6226 16.5819 17.5953 16.5409 17.5816L13.3231 16.8285C13.104 16.76 12.9397 16.6642 12.8164 16.582C12.6932 16.4998 12.611 16.3766 12.5563 16.2397C12.5015 16.1027 12.4878 15.9384 12.4878 15.733V14.309C12.4878 13.9941 12.5837 13.7339 12.789 13.5559C12.9944 13.3779 13.282 13.282 13.638 13.282H17.4172C17.7732 13.282 18.0608 13.3779 18.2661 13.5559C18.4715 13.7339 18.5674 13.9941 18.5674 14.309V15.4866H16.6778V14.8978C16.6778 14.8704 16.6778 14.843 16.6641 14.8293C16.6504 14.8156 16.623 14.8156 16.5956 14.8156H14.5143C14.4869 14.8156 14.4596 14.8156 14.4459 14.843C14.4322 14.8704 14.4322 14.8841 14.4322 14.9115V15.2949C14.4322 15.3223 14.4322 15.3496 14.4459 15.3633C14.4596 15.377 14.4869 15.4044 14.5143 15.4181L17.7869 16.2123C17.9923 16.2808 18.1566 16.3629 18.2661 16.4588C18.3757 16.5546 18.4578 16.6642 18.5126 16.8011C18.5674 16.938 18.5811 17.1023 18.5811 17.294V18.7181C18.5811 19.0467 18.4852 19.2932 18.2798 19.4712C18.0881 19.6492 17.8006 19.745 17.4446 19.745H13.5832C13.2272 19.745 12.9397 19.6492 12.748 19.4712L12.7343 19.4438Z" fill="var(--fill-0, #F7F7F7)"/>
<path id="Vector_15" d="M19.252 19.4164C19.0466 19.211 18.9508 18.9235 18.9508 18.5674V13.3094H21.2101V17.8965C21.2101 17.9239 21.2101 17.9513 21.2375 17.965C21.2512 17.9787 21.2786 17.9923 21.3059 17.9923H22.8943C22.9217 17.9923 22.9491 17.9923 22.9628 17.965C22.9765 17.9513 22.9902 17.9239 22.9902 17.8965V13.3094H25.2495V18.5674C25.2495 18.9371 25.1399 19.211 24.9482 19.4164C24.7565 19.6218 24.4553 19.7313 24.0719 19.7313H20.1558C19.7724 19.7313 19.4848 19.6218 19.2794 19.4164H19.252Z" fill="var(--fill-0, #F7F7F7)"/>
<path id="Vector_16" d="M25.6602 13.3094H30.7403C31.1374 13.3094 31.4386 13.4053 31.644 13.597C31.8494 13.7887 31.9452 14.0625 31.9452 14.4048V16.0754C31.9452 16.2807 31.9041 16.4588 31.8357 16.5957C31.7672 16.7326 31.644 16.8422 31.4934 16.9106C31.3427 16.9791 31.151 17.0202 30.9046 17.0202H30.617V17.294C30.7266 17.294 30.8224 17.3214 30.8909 17.3488C30.9593 17.3762 31.0141 17.4172 31.0689 17.4857C31.1237 17.5405 31.1784 17.6363 31.2195 17.7459L32.2054 19.7176H29.727L28.837 17.5268H27.8922V19.7176H25.6602V13.3231V13.3094ZM29.6859 16.0754C29.6996 16.0617 29.7133 16.0343 29.7133 16.0069V14.9115C29.7133 14.8841 29.7133 14.8567 29.6859 14.843C29.6585 14.8293 29.6448 14.8156 29.6175 14.8156H27.9059V16.1027H29.6175C29.6448 16.1027 29.6722 16.1027 29.6859 16.0754Z" fill="var(--fill-0, #F7F7F7)"/>
<path id="Vector_17" d="M32.6299 19.4027C32.4245 19.1973 32.3286 18.9098 32.3286 18.5537V14.4459C32.3286 14.0762 32.4382 13.7887 32.6299 13.5833C32.8216 13.3779 33.1228 13.2683 33.5062 13.2683H37.4497C37.8194 13.2683 38.107 13.3642 38.2987 13.5696C38.4904 13.775 38.5862 14.0488 38.5862 14.4185V15.5961H36.3817V14.9525C36.3817 14.9252 36.3817 14.8978 36.3543 14.8704C36.3269 14.843 36.3132 14.843 36.2858 14.843H34.6838C34.6564 14.843 34.629 14.843 34.6153 14.8704C34.6016 14.8978 34.5879 14.9115 34.5879 14.9525V18.0608C34.5879 18.0882 34.5879 18.1156 34.6153 18.1293C34.6427 18.143 34.6564 18.1567 34.6838 18.1567H36.2858C36.3132 18.1567 36.3406 18.1566 36.3543 18.1293C36.368 18.1019 36.3817 18.0882 36.3817 18.0608V17.4035H35.3958V16.226H38.5725V18.5948C38.5725 18.9508 38.4767 19.2384 38.285 19.4438C38.0933 19.6492 37.8057 19.745 37.436 19.745H33.4925C33.1091 19.745 32.8216 19.6355 32.6162 19.4301L32.6299 19.4027Z" fill="var(--fill-0, #F7F7F7)"/>
<path id="Vector_18" d="M38.997 13.3094H44.4193V14.8019H41.2289V15.7604H44.3098V17.2392H41.2289V18.2114H44.4193V19.7039H38.997V13.3094Z" fill="var(--fill-0, #F7F7F7)"/>
<path id="Vector_19" d="M44.8027 13.3094H48.1712L49.0612 17.2803H49.3624V13.3094H51.4437V19.7039H48.0753L47.1853 15.733H46.8703V19.7039H44.789V13.3094H44.8027Z" fill="var(--fill-0, #F7F7F7)"/>
<path id="Vector_20" d="M57.9204 19.4301C57.7287 19.6355 57.4412 19.7313 57.0715 19.7313H53.0595C52.6761 19.7313 52.3885 19.6218 52.1831 19.4164C51.9778 19.211 51.8819 18.9234 51.8819 18.5674V14.4322C51.8819 14.0625 51.9914 13.7887 52.1831 13.5833C52.3748 13.3779 52.6761 13.2683 53.0595 13.2683H57.0715C57.4412 13.2683 57.7287 13.3642 57.9204 13.5696C58.1121 13.775 58.208 14.0488 58.208 14.4185V15.6235H55.9897V14.9662C55.9897 14.9388 55.9897 14.9115 55.9623 14.8841C55.935 14.8567 55.9213 14.8567 55.8939 14.8567H54.2097C54.1823 14.8567 54.1549 14.8567 54.1412 14.8841C54.1275 14.9115 54.1138 14.9252 54.1138 14.9662V18.0197C54.1138 18.0471 54.1138 18.0745 54.1412 18.0882C54.1549 18.1019 54.1823 18.1156 54.2097 18.1156H55.8939C55.9213 18.1156 55.9487 18.1156 55.9623 18.0882C55.976 18.0608 55.9897 18.0471 55.9897 18.0197V17.3625H58.208V18.5674C58.208 18.9234 58.1121 19.211 57.9204 19.4164V19.4301Z" fill="var(--fill-0, #F7F7F7)"/>
<path id="Vector_21" d="M58.5777 13.3094H64V14.8019H60.8096V15.7604H63.8905V17.2392H60.8096V18.2114H64V19.7039H58.5777V13.3094Z" fill="var(--fill-0, #F7F7F7)"/>
<path id="Vector_22" d="M15.4591 26.8379C15.2537 26.6599 15.1579 26.3997 15.1579 26.0848V24.8935H17.0475V25.5097C17.0475 25.5645 17.0749 25.5918 17.1297 25.5918H19.2794C19.3068 25.5918 19.3342 25.5918 19.3479 25.5645C19.3616 25.5371 19.3616 25.5234 19.3616 25.496V25.1126C19.3616 25.0852 19.3616 25.0441 19.3479 25.0304C19.3342 25.0167 19.3068 24.9894 19.2657 24.9757L16.0479 24.2226C15.8288 24.1541 15.6645 24.0582 15.5413 23.9761C15.4181 23.8939 15.3359 23.7707 15.2811 23.6338C15.2264 23.4968 15.2127 23.3325 15.2127 23.1271V21.7031C15.2127 21.3882 15.3085 21.128 15.5139 20.95C15.7193 20.772 16.0068 20.6761 16.3629 20.6761H20.1421C20.4981 20.6761 20.7856 20.772 20.991 20.95C21.1964 21.128 21.2923 21.3882 21.2923 21.7031V22.8807H19.4027V22.2919C19.4027 22.2645 19.4027 22.2371 19.389 22.2234C19.3753 22.2097 19.3479 22.2097 19.3205 22.2097H17.2392C17.2118 22.2097 17.1844 22.2097 17.1707 22.2371C17.157 22.2645 17.157 22.2782 17.157 22.3056V22.689C17.157 22.7164 17.157 22.7437 17.1707 22.7574C17.1844 22.7711 17.2118 22.7985 17.2392 22.8122L20.5118 23.6064C20.7172 23.6748 20.8815 23.757 20.991 23.8529C21.1006 23.9487 21.1827 24.0582 21.2375 24.1952C21.2923 24.3321 21.306 24.4964 21.306 24.6881V26.1122C21.306 26.4408 21.2101 26.6873 21.0047 26.8653C20.813 27.0433 20.5255 27.1391 20.1695 27.1391H16.3081C15.9521 27.1391 15.6645 27.0433 15.4728 26.8653L15.4591 26.8379Z" fill="var(--fill-0, #F7F7F7)"/>
<path id="Vector_23" d="M21.6893 20.6898H27.1117V22.1823H23.9213V23.1408H27.0021V24.6197H23.9213V25.5918H27.1117V27.0844H21.6893V20.6898Z" fill="var(--fill-0, #F7F7F7)"/>
<path id="Vector_24" d="M27.4951 20.6898H32.5751C32.9722 20.6898 33.2734 20.7857 33.4788 20.9774C33.6842 21.1691 33.7801 21.4429 33.7801 21.7853V23.4558C33.7801 23.6612 33.739 23.8392 33.6705 23.9761C33.6021 24.113 33.4788 24.2226 33.3282 24.291C33.1776 24.3595 32.9859 24.4006 32.7394 24.4006H32.4519V24.6744C32.5614 24.6744 32.6573 24.7018 32.7257 24.7292C32.7942 24.7566 32.8489 24.7977 32.9037 24.8661C32.9585 24.9209 33.0133 25.0168 33.0543 25.1263L34.0402 27.0981H31.5618L30.6718 24.9072H29.727V27.0981H27.4951V20.7035V20.6898ZM31.5208 23.4558C31.5344 23.4421 31.5481 23.4147 31.5481 23.3873V22.2919C31.5481 22.2645 31.5481 22.2371 31.5208 22.2234C31.4934 22.2097 31.4797 22.196 31.4523 22.196H29.7407V23.4832H31.4523C31.4797 23.4832 31.5071 23.4832 31.5208 23.4558Z" fill="var(--fill-0, #F7F7F7)"/>
<path id="Vector_25" d="M36.4502 20.6898V27.0844H34.1908V20.6898H36.4502Z" fill="var(--fill-0, #F7F7F7)"/>
<path id="Vector_26" d="M36.902 20.6898H42.3243V22.1823H39.1339V23.1408H42.2148V24.6197H39.1339V25.5918H42.3243V27.0844H36.902V20.6898Z" fill="var(--fill-0, #F7F7F7)"/>
<path id="Vector_27" d="M42.9268 26.8379C42.7214 26.6599 42.6256 26.3997 42.6256 26.0848V24.8935H44.5152V25.5097C44.5152 25.5645 44.5426 25.5918 44.5973 25.5918H46.7471C46.7745 25.5918 46.8019 25.5918 46.8156 25.5645C46.8293 25.5371 46.8293 25.5234 46.8293 25.496V25.1126C46.8293 25.0852 46.8293 25.0441 46.8019 25.0304C46.7745 25.0167 46.7608 24.9894 46.7197 24.9757L43.5019 24.2226C43.2828 24.1541 43.1185 24.0582 42.9953 23.9761C42.8721 23.8939 42.7899 23.7707 42.7351 23.6338C42.6804 23.4968 42.6667 23.3325 42.6667 23.1271V21.7031C42.6667 21.3882 42.7625 21.128 42.9679 20.95C43.1733 20.772 43.4608 20.6761 43.8169 20.6761H47.5961C47.9521 20.6761 48.2396 20.772 48.445 20.95C48.6504 21.128 48.7463 21.3882 48.7463 21.7031V22.8807H46.8567V22.2919C46.8567 22.2645 46.8567 22.2371 46.843 22.2234C46.8293 22.2097 46.8019 22.2097 46.7745 22.2097H44.6932C44.6658 22.2097 44.6384 22.2097 44.6247 22.2371C44.611 22.2645 44.5973 22.2782 44.5973 22.3056V22.689C44.5973 22.7164 44.5973 22.7437 44.6247 22.7574C44.6247 22.7848 44.6658 22.7985 44.6932 22.8122L47.9658 23.6064C48.1712 23.6748 48.3355 23.757 48.445 23.8529C48.5546 23.9487 48.6367 24.0582 48.6915 24.1952C48.7463 24.3321 48.7599 24.4964 48.7599 24.6881V26.1122C48.7599 26.4408 48.6641 26.6873 48.4587 26.8653C48.267 27.0433 47.9795 27.1391 47.6234 27.1391H43.7621C43.4061 27.1391 43.1185 27.0433 42.9268 26.8653V26.8379Z" fill="var(--fill-0, #F7F7F7)"/>
</g>
</svg>
