<svg width="1600" height="1600" viewBox="0 0 1600 1600" fill="none" xmlns="http://www.w3.org/2000/svg">
<path d="M585.385 701.982C581.145 696.358 575.445 690.619 570.636 685.307C534.849 645.768 509.547 598.85 502.106 545.405C484.469 418.733 573.302 302.071 682.427 248.009C688.498 245.001 701.581 237.761 707.57 236.945L708.175 237.709C706.062 242.261 697.749 252.54 694.048 257.974C683.141 273.754 672.66 289.825 662.62 306.17C627.883 363.398 589.635 441.767 607.048 510.032C622.364 570.074 668.251 600.75 717.355 630.16C710.073 618.606 702.443 603.999 695.76 591.912L659.477 526.553C698.773 428.716 757.473 306.355 873.344 285.618C911.07 278.867 948.984 284.686 985.32 295.447C995.094 298.344 1005.3 303.107 1015.23 305.691C1045.93 308.993 1078.09 306.971 1104.89 325.252C1125.35 339.204 1130.56 365.373 1131.53 388.655C1131.77 394.361 1133.01 405.862 1129.72 410.428C1126.72 410.62 1118.7 405.618 1115.23 403.963C1108.45 400.694 1101.41 397.97 1094.19 395.818C1009.53 370.591 962.313 450.985 986.617 524.855C1024.84 641.021 1193.8 615.295 1250.31 715.471C1280.74 769.408 1260.7 849.973 1244.95 905.943C1243.66 910.411 1235.54 937.275 1232.98 938.689C1232.78 934.041 1235.56 920.613 1236.12 915.067C1237.76 899.248 1237.97 883.391 1236.59 867.564C1224.38 728.114 1071.09 689.366 955.094 684.799C934.719 683.996 913.336 682.325 892.977 684.348C987.289 698.7 1081.61 730.146 1148.75 801.674C1187.84 843.325 1209.82 897.217 1206.3 954.469C1203.3 1003.49 1181.75 1050.8 1153.41 1090.41C1148.84 1096.8 1139.05 1109.97 1133.65 1114.89C1157.19 1041.11 1139.72 963.007 1086.54 906.568C1083.61 903.451 1080.88 900.67 1077.63 897.897C1055.91 876.516 1022.93 857.761 993.688 847.84C986.524 845.411 953.844 835.951 947.844 837.943C948.352 839.122 964.398 851.519 966.984 853.652C983.984 867.549 999.617 883.031 1013.69 899.889C1058.34 953.781 1080.51 1018.66 1073.8 1089.03C1061.01 1223.28 925.594 1298.88 816.703 1350.67C811.828 1352.48 791.227 1363.97 786.984 1362.1C651.059 1302.3 506.878 1209.94 421.991 1088.3C429.674 1092.81 440.284 1101.08 448.771 1106.43C469.288 1119.18 490.899 1130.07 513.349 1138.99C593.091 1170.92 684.302 1181.91 753.815 1233.21C762.159 1239.37 772.501 1248.03 778.982 1256.09C779.003 1246.65 778.503 1238.02 776.705 1228.67C773.628 1212.34 766.364 1197.07 755.624 1184.38C722.68 1145.45 651.231 1121.62 604.923 1100.26C567.481 1082.98 540.716 1070.26 506.309 1047.15C414.475 985.457 365.452 894.585 345.81 787.378C342.813 771.011 330.006 678.488 336.104 669.561C336.404 669.638 336.705 669.715 337.005 669.792C338.41 676.047 340.246 681.828 342.429 687.855C372.575 771.056 414.909 854.238 490.476 904.709C545.312 941.329 607.095 952.211 670.684 964.624C718.656 973.99 767.757 987.082 808.539 1015.1C826.844 1027.69 843.344 1042.71 857.594 1059.75C862.813 1065.94 867.297 1072.41 872.453 1078.55C833.789 917.199 721.973 925.097 591.729 889.648C412.95 840.997 319.132 655.545 375.077 480.603C410.861 368.706 479.757 292.577 582.84 236.899L583.536 237.844C583.041 239.687 552.84 277.279 549.441 281.915C524.845 315.458 502.766 351.56 486.321 389.835C459.334 452.647 443.681 527.001 470.125 592.71C491.202 645.085 534.52 680.232 585.385 701.982Z" fill="white"/>
</svg>
