<svg width="1600" height="1600" viewBox="0 0 1600 1600" fill="none" xmlns="http://www.w3.org/2000/svg">
<path d="M798.305 227.398C802.485 227.066 871.907 251.757 882.477 255.406L1028.41 305.628C1123 338.196 1220.73 370.428 1314.47 404.413C1315.44 472.331 1314.55 542.571 1314.51 610.691C1314.7 657.824 1314.3 704.958 1313.27 752.08C1311.26 858.453 1306.76 980.172 1264.62 1078.89C1243.9 1127.44 1213.66 1168.66 1174.72 1204.2C1084.25 1286.77 915.688 1354.02 800.977 1400.2L800.422 1400.38C797.344 1399.88 785.883 1395.06 782.383 1393.67C767.855 1387.88 753.367 1382 738.919 1376.02C635.204 1333.29 488.384 1268.77 410.122 1190.35C370.799 1150.95 342.545 1104.2 324.542 1051.56C292.516 957.93 288.726 854.781 286.675 756.64C285.634 715.656 285.182 674.659 285.32 633.661L285.329 404.34C342.268 383.406 402.301 363.798 459.848 343.963L798.305 227.398ZM826.383 479.667C848.672 456.327 870.821 432.851 892.828 409.24C905.039 396.035 920.5 378.088 933.118 365.781C948.399 384.456 957.336 410.813 954.555 434.877C950.61 469.016 932.219 489.237 908.641 511.298C946.672 537.986 984.868 564.428 1023.23 590.622C1040.21 602.16 1057.08 614.442 1074.61 625.154C1070.54 641.432 1068.88 666.767 1072.98 683.299C1074.88 690.941 1082.38 704.333 1086.35 711.954L1106.81 751.249L1196.02 924.43C1177.09 947.946 1153.94 974.524 1133.96 997.375C1105.41 981.328 1073.27 962.227 1044.52 947.211L1087.99 1016.77C1070.81 1019.36 1038.69 1021.98 1022.93 1015.57C1016.16 984.555 1004.52 958.149 990.633 929.719C986.399 921.039 979.836 907.297 974.774 899.203C945.219 887.117 911.36 874.336 882.547 861.586C859.938 830.477 848.86 797.11 845.289 759.097C845.18 753.515 845.188 747.235 844.852 741.724C830.915 817.438 829.039 921.875 904.875 966.867C911.5 970.797 920.649 972.797 925.774 978.813C937.891 994.235 950.016 1009.76 962.125 1025.17L1047.27 1133.27C1062.98 1153.27 1080.4 1176.5 1096.63 1195.76C1191.77 1126.52 1230.02 1055.45 1248.84 938.563C1261.22 861.57 1262.02 783.688 1262.86 705.856L1263.27 442.143L967.579 339.949L877.016 308.699C863.5 304.021 842.961 296.209 829.555 292.541C811.344 349.67 808.157 421.985 826.383 479.667ZM387.472 424.918C442.414 490.492 493.425 536.47 562.101 587.662C574.158 596.429 587.748 606.561 600.233 614.485C616.843 596.638 627.755 585.663 645.964 569.792C600.6 523.228 559.472 472.717 523.068 418.856C519.854 414.046 503.829 386.246 500.366 385.821L387.472 424.918ZM384.732 1058.8C388.068 1065.73 391.257 1072.52 395.025 1079.26C426.431 1059.38 456.824 1037.93 486.091 1015.01C482.758 992.344 481.572 968.164 481.214 945.242C481.171 942.516 481.715 932.61 480.199 931.227C457.671 942.102 434.836 952.336 411.723 961.906C394.387 968.969 376.582 975.274 359.43 982.219C366.814 1011.9 372.383 1030.7 384.732 1058.8ZM488.335 853.149C492.844 828.196 496.933 809.078 504.025 784.781C468.684 785.813 436.4 786.078 400.957 783.852C388.868 783.141 376.797 782.18 364.747 780.972C357.263 780.232 345.713 778.738 338.428 778.635C339.939 813.219 341.322 844.633 343.943 879.258C356.207 878.649 377.436 875.508 389.691 873.406C418.883 868.399 453.332 862.594 481.856 854.617L488.335 853.149ZM457.79 1159.76C475.537 1176.22 490.464 1187.71 510.539 1201.42C518.858 1207.15 527.337 1212.63 535.967 1217.88C526.733 1192.54 518.358 1166.91 510.857 1141C509.82 1137.3 503.373 1111.65 502.117 1110.02C487.654 1126.88 472.876 1143.46 457.79 1159.76ZM1117.08 931.985C1127.98 930.82 1141.83 929.633 1152.72 929.352L1153.41 928.414C1151.95 926.774 1141.66 923.391 1138.89 922.469C1124.69 917.735 1115.69 907.43 1103.75 899.063C1107.52 909.117 1112.68 922.047 1117.08 931.985ZM1027.46 688.661L1028.01 687.126C1019.32 670.86 999.75 657.545 984.493 648.189C980.954 646.017 973 640.246 969.649 638.796C973.36 651.364 984.118 682.7 995.602 688.879C1003.34 693.048 1018.7 689.754 1027.46 688.661ZM560.865 665.191C499.373 639.63 442.633 611.889 386.233 576.057C368.137 564.56 353.744 553.672 336.614 542.001C336.129 584.181 336.506 627.006 336.535 669.236C392.132 691.502 470.14 711.091 528.613 720.81C532.261 713.981 535.991 707.197 539.803 700.459C546.75 688.28 553.804 677.128 560.865 665.191ZM705.791 314.078C674.114 324.966 637.528 336.567 606.552 348.271C628.187 403.206 654.246 456.295 684.472 507.013C689.066 514.748 693.762 522.421 698.559 530.032C718.148 518.104 736.923 507.091 758.037 497.979C740.283 447.394 725.092 398.157 714.188 345.469C712.495 337.292 710.08 323.552 708.013 314.931C707.568 314.634 707.124 314.336 706.679 314.038L705.791 314.078Z" fill="white"/>
</svg>
