<svg width="1600" height="1600" viewBox="0 0 1600 1600" fill="none" xmlns="http://www.w3.org/2000/svg">
<path d="M1059.93 227.493L1061.63 227.362C1063.27 230.268 1062.43 257.52 1062.41 263.211L1062.37 328.244L1062.22 539.294L1061.96 702.862L1061.89 752.732C1061.88 760.333 1062.18 773.794 1061.31 781.054C1056.27 824.492 1043.45 866.664 1023.44 905.539C991.812 967.804 944.141 1027.86 896.601 1079.02C885.969 1090.45 875.187 1101.73 864.25 1112.86C857.898 1119.27 848.984 1127.24 843.57 1134.15C842.805 1095.77 843.351 1055.73 843.351 1017.24L843.312 785.351C836.297 792.719 813.734 810.703 804.351 818.328C790.508 829.57 773.007 845.32 759.32 855.476C758.595 869.156 759.037 885.594 759.04 899.523L759.05 975.594L758.983 1234.98C742.313 1257.32 722.758 1279.16 706.601 1301.29C710.374 1301.07 714.726 1301.15 718.549 1301.12C745.778 1300.81 773.712 1301.1 800.969 1301.11C801.625 1314.07 801.18 1329.74 801.226 1342.91C801.289 1361.75 801.461 1381.53 800.687 1400.29C730.706 1360.09 670.101 1326.38 612.382 1267.77C525.233 1179.28 537.167 1071.97 537.151 958.203L537.155 746.019L537.151 575.862C537.142 549.403 535.984 510.965 537.473 485.352C546.083 482.64 568.095 470.497 577.878 465.733C614.878 447.867 651.701 429.637 688.343 411.047L871.844 320.51C933.422 289.705 997.57 256.318 1059.93 227.493ZM655.652 1253.5C668.911 1275.09 673.706 1282.18 689.95 1301.63C689.085 1292.51 689.47 1277.94 689.469 1268.42L689.473 1212.57L689.492 1030.31L689.551 451.78C683.376 455.674 612.888 526.476 607.526 533.428C606.226 567.326 607.229 608.043 607.232 642.383L607.258 847.289L607.251 967.875C607.256 998.203 606.473 1028.51 609.219 1058.73C609.656 1063.54 608.792 1069.61 609.069 1074.6C612.198 1131.06 623.101 1187.9 648.105 1239.02C650.234 1243.4 653.068 1249.51 655.652 1253.5ZM912.015 381.683C910.656 409.955 911.734 448.126 911.742 477.077L911.758 657.467V889.883C911.758 904.133 911.07 1001.22 912.367 1004.08L913.008 1003.42C918.648 998.453 925.734 989.039 930.351 982.719C997.984 890.211 991.25 774.953 991.25 666.448L991.234 452.918L991.25 348.798C991.25 341.69 991.672 309.757 990.687 304.522L989.828 303.704C983.515 310.851 974.93 318.833 968.016 325.753L930.945 362.937C925.984 367.853 916.273 376.819 912.015 381.683ZM760.728 758.575C771.184 750.213 782.82 741.723 793.687 733.734C809.898 721.805 826.555 707.744 843.109 696.564C844.25 668.747 844.054 379.64 842.726 376.405C816.328 404.194 785.851 431.988 759.261 459.787C758.594 485.364 759.032 512.683 759.033 538.378L759.052 676.602C759.055 686.25 758.335 755.417 759.58 758.942L760.728 758.575Z" fill="white"/>
</svg>
