<svg width="1600" height="1600" viewBox="0 0 1600 1600" fill="none" xmlns="http://www.w3.org/2000/svg">
<path d="M98.4297 521.482L741.386 521.413L1087.48 521.414L1274.61 521.563C1272.66 524.347 1270.64 527.09 1268.56 529.787C1224.66 586.776 1158.53 632.635 1086.16 641.951C1079.57 650.619 1071.71 662.721 1065.42 671.831L1023.39 732.905L891.016 925.25L785.383 1078.62C779.652 1075.34 774.048 1071.83 768.581 1068.12C736.767 1046.26 694.05 1005.2 719.627 962.851C726.214 951.945 734.096 941.109 741.345 930.586L785.461 866.515L939.75 642.001L490.92 642.004L352.67 642.049C330.234 642.055 302.127 642.646 280.155 641.3C262.015 640.189 230.995 628.981 214.571 621.42C175.235 603.31 139.28 574.392 111.381 541.38C107.548 536.845 98.6609 527.169 96.7383 522.065L98.4297 521.482Z" fill="white"/>
<path d="M1358.39 521.46C1406.14 521.396 1457.24 520.446 1504.61 521.539C1492.88 539.685 1479.41 558.429 1467.09 576.31L1403.27 669.15L1207.2 954.125L1150.24 1036.91C1141.2 1050.05 1130.05 1065.38 1121.52 1078.66C1085.7 1057.68 1027.06 1012.1 1055.4 963.414C1063.5 949.485 1074.85 934.391 1084.15 920.891L1134.91 847.071C1181.52 779.221 1228.34 709.645 1275.63 642.383L1275.53 641.967C1271.64 640.01 1193.34 642.557 1180.83 640.668C1254.65 623.805 1314.19 582.955 1358.39 521.46Z" fill="white"/>
<path d="M303.886 672.002C379.29 670.682 458.302 671.859 533.943 671.857L882.484 671.976C874.461 684.011 866.289 695.946 857.969 707.776C853.008 715.614 846.914 724.139 841.609 731.868C809.813 732.56 775.449 731.906 743.487 731.907L548.51 731.908L446.714 731.964C409.903 731.981 383.159 735.924 350.53 715.186C329.488 701.814 319.085 691.33 303.886 672.002Z" fill="white"/>
<path d="M417.89 762.089C525.286 760.611 633.209 762.934 740.652 761.945C766.884 761.704 794.32 761.453 820.484 762.229C812.516 774.253 804.398 786.172 796.125 797.984L779.581 822.172L590.264 822.094L539.673 822.164C529.572 822.179 513.884 822.687 504.45 820.953C469.727 814.578 437.881 790.429 417.89 762.089Z" fill="white"/>
<path d="M532.135 852.437C560.711 851.758 590.902 852.273 619.651 852.273L758.893 852.398L733.886 888.687L717.724 912.39C698.392 912.672 678.437 912.422 659.09 912.492C650.295 912.531 630.287 913.094 622.273 911.773C583.927 905.453 554.839 882.219 532.135 852.437Z" fill="white"/>
<path d="M1169.83 642.27C1174 641.365 1176.52 640.626 1180.83 640.668C1193.34 642.556 1271.64 640.01 1275.53 641.967L1275.63 642.383C1266.68 641.618 1248.28 642.153 1238.8 642.138C1215.81 641.993 1192.82 642.038 1169.83 642.27Z" fill="black" fill-opacity="0.713725"/>
</svg>
