<svg width="1600" height="1600" viewBox="0 0 1600 1600" fill="none" xmlns="http://www.w3.org/2000/svg">
<path d="M869.328 313.601C886.445 312.586 904.68 319.383 919.469 327.106C932.258 333.33 939.703 344.709 936.5 359.395C931.609 381.816 917.414 406.387 907.047 426.968L875.547 489.229C838.789 562.099 803.976 636.399 766.262 708.787C739.301 760.532 712.107 811.625 686.889 864.328C674.332 890.211 661.127 916.313 650.24 942.906C647.39 950.445 641.326 966.063 651.7 970.344C658.68 973.227 664.883 967.828 668.811 962.797C678.34 950.594 686.566 935.82 694.245 922.5L733.553 852.805C772.663 783.531 810.445 713.522 846.883 642.809C891.5 556.872 933.297 468.934 982.93 385.749C999.476 358.021 1022.14 363.906 1046.47 375.964C1070.3 387.77 1080.93 403.599 1069.62 430.143C1062.13 447.718 1053.23 463.696 1044.22 480.411C1030.95 505.484 1017.4 530.412 1003.58 555.19L916.164 714.863L881.008 778.784C873.031 793.149 864.797 807.727 857.094 822.148C853.078 830.406 847.265 842.922 850.984 852.023C857.555 868.125 871.961 865.367 881.851 854.055C889.758 845.016 894.617 834.875 900.445 824.625C907.312 812.492 914.265 800.398 921.305 788.367C962.094 719.594 1002.46 650.57 1042.38 581.297C1052.97 563.259 1063.34 545.099 1073.51 526.823C1097.95 483.462 1114.81 443.735 1165.68 492.648C1198.18 523.899 1187.75 543.624 1167.43 576.999L1143.52 615.87C1119.77 655.201 1095.72 694.36 1071.4 733.346L987.14 870.195C975.07 889.898 962.875 909.406 950.101 928.672C937.711 947.352 927.469 967.156 910.234 982.024C872.398 1014.66 826.398 984.945 790.875 964.852C781.984 959.82 765.677 958.047 757.069 964.906C743.407 976.609 737.276 996.18 727.885 1011.24C707.53 1049.13 656.106 1134.94 615.17 1149.65C604.165 1153.63 592.058 1153.31 581.282 1148.73C538.437 1130.68 542.083 1082.29 516.44 1067.94C492.469 1054.53 458.501 1072.75 435.604 1061.13C429.363 1057.95 424.541 1052.69 421.024 1046.71C396.647 1005.28 450.734 932.445 441.317 906.25C439.647 901.602 436.515 898.109 432.007 896.063C428.091 894.289 424.245 893.711 420.193 895.352C411.638 898.828 408.647 907.93 405.425 915.742C391.464 947.938 373.354 985.274 338.644 998.961C308.425 1010.88 273.38 1000.09 245.004 987.852C191.332 964.688 138.672 925.789 116.773 869.758C104.45 838.227 103.947 801.133 117.944 769.953C121.649 761.702 127.292 752.98 136.754 750.968C147.972 748.582 160.663 756.406 170.886 760.374C179.818 763.842 188.95 766.716 197.963 769.957C208.726 773.827 220.385 779.17 231.694 780.836C235.68 781.422 240.065 781.289 243.833 779.738C248.312 777.898 251.462 773.967 253.226 769.552C256.281 761.901 255.263 752.839 251.89 745.47C249.324 739.866 245.258 735.379 240.048 732.111C225.654 723.079 196.577 718.25 179.206 712.09C163.556 706.541 145.12 698.812 137.799 682.716C129.466 664.395 136.658 642.139 143.515 624.537C157.774 587.938 198.066 522.53 234.136 506.989C263.265 494.438 301.533 500.387 330.036 511.839C352.525 520.875 373.29 534.742 382.966 557.832C406.483 613.945 366.109 734.555 344.419 790.242C339.087 803.93 332.153 816.914 326.758 830.531C323.872 837.82 321.556 845.977 325.09 853.5C326.599 856.688 329.325 859.141 332.657 860.297C351.333 866.82 362.225 825.25 367.574 812.516C390.559 757.772 411.944 701.345 425.564 643.474C431.276 618.875 436.418 594.149 440.984 569.312C445.873 541.616 447.303 496.876 475.41 483.066C490.441 475.57 512.228 474.716 528.138 479.431C569.905 491.809 552.319 548.384 544.624 578.553C534.233 617.97 521.944 656.861 507.801 695.091C501.622 711.948 494.933 728.731 488.9 745.627C485.519 755.095 485.806 757.066 489.968 765.409C509.123 778.731 519.731 755.891 525.214 741.092C533.808 717.896 541.222 694.46 549.072 671.019L611.943 484.379C627.29 439.509 642.582 395.572 661.872 351.951C676.172 317.959 700.237 309.151 734.344 320.209C762.566 329.359 769.498 341.542 760.369 370.399C752.533 395.166 743.676 419.958 734.745 444.251C689.734 563.101 641.541 680.722 590.219 796.984C582.811 814.039 543.585 897.344 544.424 911.977C544.631 915.586 545.946 919.219 548.79 921.586C551.608 923.922 555.51 924.602 559.079 924.305C564.833 923.836 569.997 918.734 573.214 914.32C582.244 901.914 589.652 881.805 596.19 867.469L628.257 797.734C649.445 751.777 670.244 705.646 690.651 659.34L779.877 451.545C792.469 422.446 820.055 352.398 838.555 329.87C846.969 319.624 856.234 314.854 869.328 313.601Z" fill="white"/>
<path d="M1259.91 572.852C1261.08 572.769 1262.24 572.705 1263.41 572.659C1319.54 570.587 1316.69 640.279 1343.16 671.211C1358.05 687.177 1380.38 692.459 1396.26 708.154C1469.23 780.304 1348.96 904.43 1300 956.813C1280.92 977.383 1261.65 997.781 1242.2 1018C1231.54 1029.18 1208.79 1047.77 1209.66 1064.25C1209.88 1068.45 1211.59 1072.13 1214.86 1074.82C1218.31 1077.66 1223.01 1079.16 1227.38 1079.73C1254.81 1083.34 1268.61 1050.78 1294.66 1048.6C1315.58 1046.84 1381.76 1090.84 1398.66 1104.64C1404.83 1109.69 1411.86 1116.27 1412.42 1124.7C1413.59 1142.14 1390.27 1174.3 1379.03 1186.54C1352.4 1215.55 1312.16 1235.43 1272.65 1236.9C1228.66 1238.54 1189.36 1216.42 1157.67 1187.7C1151.45 1182.06 1146.31 1175.34 1140.13 1169.7C1131.71 1162.02 1122.13 1157.73 1110.55 1158.45C1090.46 1159.71 1074.76 1175.43 1062.13 1189.55C1048.14 1206.32 1035.54 1218.87 1016.87 1231.41C956.992 1271.62 878.446 1261.41 816.492 1231.75C812.078 1229.63 807.719 1226.32 805.039 1222.41C799.391 1214.16 820.141 1186.49 823.368 1181.31L849.953 1138.28C860.266 1121.55 870.117 1104.41 881.039 1088.11C885.821 1080.98 897.899 1072.22 906.938 1075.92C917.961 1079.95 926.891 1089.15 937.313 1094.43C963.672 1107.78 1035.75 1152.41 1049.64 1105.28C1048.25 1101.63 1046.95 1097.91 1043.77 1095.45C1015.26 1073.38 937.149 1056.86 957.555 1006.1C965 987.578 978.032 965.641 988.649 947.742C1002.9 923.758 1017.43 899.953 1032.24 876.313C1067.66 819.781 1101.23 765.357 1138.22 709.538C1150.93 690.238 1163.96 671.154 1177.31 652.291C1193.13 629.49 1211.64 600.066 1233.58 583.029C1241.38 576.972 1250.44 574.776 1259.91 572.852ZM1130.05 983.305C1146.08 976.274 1149.47 969.43 1160 956.188L1183.76 926.133C1210.68 891.914 1243.73 854.531 1262.97 815.297C1265.87 809.375 1265.72 800.539 1262.91 794.492C1260.34 788.945 1255.56 784.711 1249.75 782.805C1246.38 781.742 1241.79 781.969 1238.3 782.281C1225.13 784.969 1216.21 800.523 1208.81 810.797C1199.8 823.289 1191.44 836.383 1182.34 848.82L1136.45 911.547C1127.48 923.656 1118.23 935.625 1109.46 947.836C1105.92 952.774 1102.81 962.531 1104.26 968.523C1107.22 980.82 1118.94 984.57 1130.05 983.305Z" fill="white"/>
<path d="M554.034 319.069C574.729 318.067 606.652 320.36 609.145 346.792C611.34 370.058 600.752 397.41 586.649 415.618C573.402 432.721 555.953 439.983 535.023 442.319C520.955 442.985 503.072 442.423 492.42 432.492C468.07 409.793 478.451 368.702 497.959 346.721C512.508 330.328 532.998 320.596 554.034 319.069Z" fill="white"/>
<path d="M408.32 379.128C432.141 376.688 451.645 387.416 449.69 413.768C446.453 457.371 416.833 493.641 370.982 491.124C337.936 485.245 315.385 457.36 334.394 425.414C349.301 400.36 381.429 385.982 408.32 379.128Z" fill="white"/>
<path d="M1368.53 950.906C1399.49 948.938 1451.85 995.352 1445.85 1029.54C1442.13 1050.78 1436.77 1073.77 1409.9 1070.66C1386.68 1064.85 1340.32 1042.27 1331.98 1017.04C1327.42 1003.3 1336.17 984.656 1343.02 972.891C1349.28 962.109 1355.95 954.195 1368.53 950.906Z" fill="white"/>
<path d="M711.072 1119.04C741.429 1115.87 804.82 1138.42 777.869 1177.62C766.423 1194.26 761.071 1206.52 740.375 1212.41C724.135 1214.08 705.177 1205.48 690.952 1199.06C669.613 1189.14 659.961 1178.25 673.502 1155.51C683.695 1138.38 690.827 1124.8 711.072 1119.04Z" fill="white"/>
<path d="M790.625 1011.14C809.352 1010.01 848.774 1023.66 856.063 1043.98C858.797 1051.62 852.836 1065.31 848.727 1072.31C840.07 1087.03 831.602 1098.44 814.469 1103.36C796.227 1104.16 774.487 1095.21 758.86 1085.91C734.765 1071.59 750.503 1047.18 762.183 1030.28C769.134 1020.23 777.941 1013.1 790.625 1011.14Z" fill="white"/>
<path d="M1451.94 846.272C1471.3 847.007 1483.83 864.624 1488.93 881.585C1496.06 905.327 1498.21 953.343 1464.8 957.655C1461.71 958.054 1456.13 957.062 1452.91 956.53C1442.73 953.171 1437.43 948.999 1428.98 943.085C1396.88 920.64 1407.24 884.585 1429.37 859.718C1435.8 852.483 1442.8 848.96 1451.94 846.272Z" fill="white"/>
</svg>
